<svg width="13" height="12" viewBox="0 0 13 12" fill="none" xmlns="http://www.w3.org/2000/svg">
<path fill-rule="evenodd" clip-rule="evenodd" d="M2.15725 2.41444H1.79676C1.67606 2.41444 1.57807 2.51244 1.57807 2.63313C1.57807 2.75383 1.67606 2.85181 1.79676 2.85181H2.87468V3.1595H1.93828C1.88817 3.1595 1.83957 3.17671 1.80063 3.20825C1.76169 3.23979 1.73476 3.28375 1.72436 3.33277L1.1829 5.88382H0.493589C0.372812 5.88382 0.274903 5.98173 0.274903 6.10249V8.83602C0.274903 8.95678 0.372812 9.05469 0.493589 9.05469H1.08323V10.048C1.08323 10.1687 1.18114 10.2667 1.30192 10.2667H2.39819C2.43215 10.6633 2.61246 11.0186 2.88485 11.278H0.482358C0.361659 11.278 0.263672 11.376 0.263672 11.4966C0.263672 11.6173 0.361659 11.7153 0.482358 11.7153H12.751C12.8717 11.7153 12.9697 11.6173 12.9697 11.4966C12.9697 11.376 12.8717 11.278 12.751 11.278H11.1451C11.4174 11.0186 11.5978 10.6634 11.6318 10.2667H12.728C12.8488 10.2667 12.9467 10.1687 12.9467 10.048V6.37634C12.9467 6.25556 12.8488 6.15765 12.728 6.15765H10.4408L9.8019 3.32998C9.79096 3.28158 9.76389 3.23833 9.72512 3.20735C9.68636 3.17637 9.63821 3.1595 9.58859 3.1595H8.10189V2.85181H9.79319C9.91388 2.85181 10.0119 2.75383 10.0119 2.63313C10.0119 2.51244 9.91388 2.41444 9.79319 2.41444H9.41445V1.55944C9.41445 1.42249 9.36004 1.29114 9.26319 1.19429C9.16635 1.09745 9.035 1.04305 8.89804 1.04305H6.83219C6.80557 1.04305 6.77916 1.04511 6.75315 1.04912V0.787884C6.75315 0.720068 6.7398 0.652916 6.71385 0.590262C6.6879 0.527608 6.64986 0.470679 6.60191 0.422727C6.55396 0.374774 6.49703 0.336736 6.43437 0.310786C6.37172 0.284836 6.30457 0.271481 6.23675 0.271484H2.67365C2.5367 0.271488 2.40535 0.325895 2.30851 0.422738C2.21166 0.519581 2.15726 0.650927 2.15725 0.787884V2.41444ZM8.47253 10.2667H5.55743C5.52343 10.6634 5.34311 11.0186 5.07078 11.278H8.95918C8.68679 11.0186 8.50647 10.6633 8.47253 10.2667ZM3.9778 8.98181C4.61145 8.98181 5.12588 9.49625 5.12588 10.1299C5.12588 10.7635 4.61145 11.278 3.9778 11.278C3.34417 11.278 2.82973 10.7635 2.82973 10.1299C2.82973 9.49625 3.34417 8.98181 3.9778 8.98181ZM10.0521 8.98181C10.6858 8.98181 11.2002 9.49625 11.2002 10.1299C11.2002 10.7635 10.6858 11.278 10.0521 11.278C9.41849 11.278 8.90406 10.7635 8.90406 10.1299C8.90406 9.49625 9.41849 8.98181 10.0521 8.98181ZM10.0521 9.33717C9.61462 9.33717 9.25941 9.69237 9.25941 10.1299C9.25941 10.5674 9.61462 10.9226 10.0521 10.9226C10.4897 10.9226 10.8449 10.5674 10.8449 10.1299C10.8449 9.69237 10.4897 9.33717 10.0521 9.33717ZM3.9778 9.33717C3.5403 9.33717 3.18509 9.69237 3.18509 10.1299C3.18509 10.5674 3.5403 10.9226 3.9778 10.9226C4.41532 10.9226 4.77053 10.5674 4.77053 10.1299C4.77053 9.69237 4.41532 9.33717 3.9778 9.33717ZM10.0521 9.77453C10.2483 9.77453 10.4075 9.93377 10.4075 10.1299C10.4075 10.326 10.2483 10.4853 10.0521 10.4853C9.85601 10.4853 9.69678 10.326 9.69678 10.1299C9.69678 9.93377 9.85601 9.77453 10.0521 9.77453ZM3.9778 9.77453C4.17394 9.77453 4.33317 9.93377 4.33317 10.1299C4.33317 10.326 4.17394 10.4853 3.9778 10.4853C3.78169 10.4853 3.62245 10.326 3.62245 10.1299C3.62245 9.93377 3.78169 9.77453 3.9778 9.77453ZM2.42088 9.82928C2.45101 9.67249 2.50484 9.52119 2.58051 9.38059H1.5206V9.82928H2.42088ZM8.65531 9.37971L5.37521 9.38076C5.45081 9.52132 5.50461 9.67255 5.53474 9.82928H8.49521C8.52541 9.67216 8.57939 9.52055 8.65531 9.37971ZM12.5094 9.37963L11.4491 9.37997C11.5249 9.52075 11.5789 9.67226 11.6091 9.82928H12.5094V9.37963ZM9.41382 3.59686H2.11541L1.5206 6.39929V7.7891H2.24304C2.36382 7.7891 2.46172 7.88701 2.46172 8.00779V8.94323H2.92683C3.20666 8.69517 3.57477 8.54445 3.9778 8.54445C4.3819 8.54445 4.75089 8.69595 5.03102 8.94521C5.03998 8.94408 9.0023 8.94223 9.0023 8.94223C9.28194 8.69477 9.64963 8.54445 10.0521 8.54445C10.4549 8.54445 10.8228 8.69497 11.1025 8.94272L12.5094 8.94227V7.68794H11.4812C11.3605 7.68794 11.2626 7.59003 11.2626 7.46926V6.59502H10.2661C10.1639 6.59502 10.0753 6.52422 10.0528 6.42453L9.41382 3.59686ZM1.5206 8.22648V8.94323H2.02435V8.22648H1.5206ZM1.09007 6.32118H0.712262V8.61733H1.08323V6.37634C1.08323 6.36108 1.09007 6.32118 1.09007 6.32118ZM4.352 7.51519H5.24263C5.36333 7.51519 5.46132 7.4172 5.46132 7.29651C5.46132 7.17582 5.36333 7.07783 5.24263 7.07783H4.352C4.2313 7.07783 4.13331 7.17582 4.13331 7.29651C4.13331 7.4172 4.2313 7.51519 4.352 7.51519ZM6.23465 7.51519H7.12529C7.24599 7.51519 7.34397 7.4172 7.34397 7.29651C7.34397 7.17582 7.24599 7.07783 7.12529 7.07783H6.23465C6.11395 7.07783 6.01597 7.17582 6.01597 7.29651C6.01597 7.4172 6.11395 7.51519 6.23465 7.51519ZM11.6999 7.25057H12.5094V6.59502H11.6999L11.6999 7.25057ZM8.88371 4.04625C8.87607 4.017 8.85894 3.9911 8.83501 3.97262C8.81108 3.95414 8.7817 3.94412 8.75146 3.94412H6.23465C6.11387 3.94412 6.01597 4.04202 6.01597 4.1628V6.30663C6.01597 6.42739 6.11387 6.5253 6.23465 6.5253H9.24823C9.28132 6.5253 9.31396 6.51779 9.34373 6.50335C9.37349 6.4889 9.39958 6.46789 9.42005 6.4419C9.44051 6.41591 9.45481 6.38562 9.46188 6.3533C9.46894 6.32098 9.46858 6.28748 9.46082 6.25532L8.88371 4.04625ZM5.24263 3.94412L2.68734 3.95331C2.65683 3.95342 2.62724 3.96373 2.60327 3.9826C2.5793 4.00148 2.56234 4.02782 2.55508 4.05745L2.01648 6.25532C2.00872 6.28748 2.00836 6.32098 2.01542 6.3533C2.02248 6.38561 2.03678 6.41591 2.05725 6.4419C2.07771 6.46789 2.10381 6.4889 2.13356 6.50334C2.16332 6.51779 2.19597 6.5253 2.22905 6.5253H5.24263C5.36341 6.5253 5.46132 6.42739 5.46132 6.30663V4.1628C5.46132 4.04202 5.36341 3.94412 5.24263 3.94412ZM8.58396 4.48609C8.57676 4.45627 8.55975 4.42975 8.53565 4.41077C8.51155 4.3918 8.48177 4.38148 8.4511 4.38147H6.59001C6.51452 4.38147 6.45334 4.44267 6.45334 4.51816V6.04267C6.44864 6.04498 6.44485 6.04882 6.44261 6.05355C6.44037 6.05829 6.43979 6.06364 6.44098 6.06874C6.44217 6.07384 6.44505 6.07839 6.44915 6.08165C6.45326 6.0849 6.45835 6.08667 6.46359 6.08667C6.63766 6.08794 8.9705 6.08794 8.9705 6.08794L8.58396 4.48609ZM3.0262 4.38147C2.99553 4.38147 2.96574 4.39179 2.94164 4.41077C2.91755 4.42974 2.90053 4.45627 2.89334 4.48609L2.54751 5.91921C2.54266 5.9393 2.54243 5.96024 2.54684 5.98044C2.55126 6.00064 2.56019 6.01958 2.57298 6.03582C2.58578 6.05207 2.60209 6.0652 2.62069 6.07422C2.63929 6.08325 2.65969 6.08794 2.68037 6.08794H5.02396V4.38353C5.02094 4.38237 5.01774 4.38177 5.0145 4.38178C4.88379 4.38147 3.43617 4.38147 3.0262 4.38147ZM3.31205 2.85181V3.1595H7.66453V2.85181H3.31205ZM8.25148 1.4804V2.41444H6.75315V1.55944C6.75315 1.53848 6.76148 1.51838 6.7763 1.50356C6.79112 1.48873 6.81123 1.4804 6.83219 1.4804H8.25148ZM8.68884 1.4804H8.89804C8.919 1.4804 8.93911 1.48873 8.95393 1.50356C8.96875 1.51838 8.97708 1.53848 8.97708 1.55944V2.41444H8.68884V1.4804ZM3.20344 0.708843V2.41444H2.59461V0.787884C2.59461 0.777503 2.59665 0.767223 2.60062 0.757632C2.60459 0.748041 2.61042 0.739326 2.61776 0.731986C2.6251 0.724646 2.63381 0.718824 2.6434 0.714853C2.65299 0.710882 2.66327 0.70884 2.67365 0.708843H3.20344ZM3.64081 0.708843V2.41444H5.26961V0.708843H3.64081ZM5.70697 0.708843H6.23675C6.25771 0.708843 6.27782 0.717171 6.29264 0.731994C6.30746 0.746817 6.31579 0.766921 6.31579 0.787884V2.41444H5.70697V0.708843Z" fill="#182138"/>
</svg>
