<svg width="29" height="28" viewBox="0 0 29 28" fill="none" xmlns="http://www.w3.org/2000/svg">
<g clip-path="url(#clip0_876_62551)">
<path d="M22.5875 0.224609C24.1792 0.224609 25.6363 0.874729 26.69 1.90595C27.7212 2.9596 28.3713 4.41676 28.3713 6.00844C28.3713 6.94999 28.1471 7.82429 27.766 8.60892C27.0262 10.0885 23.2376 12.689 22.5875 15.5136C21.5114 12.7787 18.1487 10.0885 17.409 8.60892C17.0054 7.82429 16.7812 6.94999 16.7812 6.00844C16.7812 2.80267 19.3817 0.224609 22.5875 0.224609Z" fill="white"/>
<path d="M22.5881 0C23.3951 0 24.1798 0.156926 24.8747 0.448359C25.6145 0.76221 26.287 1.21057 26.8251 1.77102H26.8475C27.3855 2.33147 27.8339 2.98159 28.1477 3.72138C28.4392 4.41633 28.5961 5.20096 28.5961 6.00801C28.5961 6.47878 28.5288 6.94956 28.4392 7.39792C28.3271 7.84628 28.1702 8.29463 27.9684 8.69816C27.677 9.28102 26.982 9.9984 26.175 10.8054C24.8299 12.1729 23.1934 13.8319 22.7898 15.558C22.7674 15.6701 22.6553 15.7374 22.5432 15.715C22.4536 15.6926 22.4087 15.6477 22.3863 15.5805C21.7362 13.9664 20.279 12.3523 19.0461 11.0072C18.239 10.1105 17.5216 9.32586 17.2078 8.69816C17.006 8.29463 16.8491 7.84628 16.737 7.39792C16.6249 6.94956 16.5801 6.47878 16.5801 6.00801C16.5801 4.34908 17.2526 2.84708 18.3287 1.77102C19.4272 0.672538 20.9292 0 22.5881 0ZM24.7178 0.851881C24.0677 0.582866 23.3503 0.425941 22.5881 0.425941C21.0412 0.425941 19.6513 1.05364 18.6425 2.06245C17.6337 3.07126 17.006 4.46117 17.006 6.00801C17.006 6.45636 17.0509 6.88231 17.1629 7.28583C17.2526 7.71177 17.4095 8.11529 17.5889 8.4964C17.8803 9.05684 18.5753 9.84147 19.3823 10.7158C20.4808 11.9488 21.8035 13.3835 22.5432 14.8855C23.1485 13.2714 24.6281 11.747 25.8611 10.514C26.6457 9.70696 27.3183 9.01201 27.5649 8.4964C27.7666 8.11529 27.9011 7.71177 28.0132 7.28583C28.1029 6.88231 28.1477 6.45636 28.1477 6.00801C28.1477 5.2458 28.0132 4.52842 27.7442 3.8783C27.4528 3.20576 27.0493 2.60048 26.5336 2.08487V2.06245C26.018 1.54684 25.3903 1.14331 24.7178 0.851881Z" fill="#182138"/>
<path d="M22.5882 3.07324C24.1799 3.07324 25.4577 4.37348 25.4577 5.94274C25.4577 7.53441 24.1799 8.81223 22.5882 8.81223C20.9966 8.81223 19.7188 7.53441 19.7188 5.94274C19.7188 4.37348 20.9966 3.07324 22.5882 3.07324Z" fill="#ED5722"/>
<path d="M22.5878 2.87109C23.4397 2.87109 24.2019 3.20736 24.7624 3.76781C25.3228 4.32826 25.6815 5.09047 25.6815 5.94235C25.6815 6.79423 25.3228 7.57886 24.7624 8.13931C24.2019 8.69976 23.4397 9.03603 22.5878 9.03603C21.7359 9.03603 20.9513 8.69976 20.3909 8.13931C19.8304 7.57886 19.4941 6.79423 19.4941 5.94235C19.4941 5.09047 19.8304 4.32826 20.3909 3.76781C20.4133 3.76781 20.4133 3.76781 20.4133 3.74539C20.9737 3.20736 21.7359 2.87109 22.5878 2.87109ZM24.4485 4.08166C23.9777 3.58847 23.3052 3.29703 22.5878 3.29703C21.848 3.29703 21.1979 3.58847 20.7271 4.05924L20.7047 4.08166C20.2339 4.55244 19.9201 5.22498 19.9201 5.94235C19.9201 6.68214 20.2339 7.35468 20.7047 7.82546C21.1979 8.29623 21.848 8.61009 22.5878 8.61009C23.3052 8.61009 23.9777 8.29623 24.4485 7.82546C24.9417 7.35468 25.2331 6.68214 25.2331 5.94235C25.2331 5.22498 24.9417 4.55244 24.4485 4.08166Z" fill="#182138"/>
<path d="M8.73393 6.32227C10.9309 6.32227 12.8812 7.19657 14.316 8.63131C15.7507 10.0661 16.625 12.0388 16.625 14.2134C16.625 15.4688 16.3336 16.6794 15.7956 17.733C14.7868 19.7506 9.65306 23.2926 8.73393 27.1261C7.27676 23.4047 2.70351 19.7506 1.6947 17.733C1.15667 16.6794 0.865234 15.4688 0.865234 14.2134C0.865234 9.84188 4.38485 6.32227 8.73393 6.32227Z" fill="white"/>
<path d="M8.7335 6.09766C9.83198 6.09766 10.8856 6.32184 11.8496 6.72536C12.836 7.12888 13.7327 7.73417 14.4725 8.47396C15.2123 9.21375 15.8176 10.1105 16.2211 11.1193C16.6246 12.0608 16.8488 13.1145 16.8488 14.2129C16.8488 14.8407 16.7591 15.4684 16.6246 16.0736C16.4901 16.6789 16.2659 17.2618 15.9969 17.8222C15.5934 18.6069 14.6518 19.5708 13.5758 20.6693C11.7375 22.53 9.51813 24.8166 8.95768 27.1705C8.93526 27.2826 8.80075 27.3723 8.68866 27.3274C8.62141 27.3274 8.55416 27.2602 8.53174 27.1929C7.65744 24.996 5.66224 22.799 4.00332 20.9607C2.88242 19.7278 1.91845 18.6517 1.49251 17.8222C1.22349 17.2618 0.999312 16.6789 0.864804 16.0736C0.707879 15.4684 0.640625 14.8407 0.640625 14.2129C0.640625 11.9712 1.53734 9.95354 3.01693 8.47396C4.47409 7.01679 6.51412 6.09766 8.7335 6.09766ZM11.6702 7.12888C10.7735 6.74778 9.78714 6.54601 8.7335 6.54601C6.62621 6.54601 4.69827 7.3979 3.33078 8.78781C1.94087 10.1777 1.06657 12.0832 1.06657 14.2129C1.06657 14.8182 1.15624 15.4011 1.29075 15.9615C1.42525 16.5444 1.62701 17.1049 1.87361 17.6429C2.27713 18.4051 3.21869 19.4587 4.31717 20.6693C5.88642 22.3731 7.72469 24.3907 8.71108 26.4756C9.47329 24.2338 11.5357 22.1265 13.2619 20.3779C14.3156 19.2794 15.2347 18.3378 15.5934 17.6429C15.8624 17.1049 16.0642 16.5444 16.1987 15.9615C16.3332 15.4011 16.4004 14.8182 16.4004 14.2129C16.4004 13.1593 16.1987 12.1729 15.8176 11.2762C15.4365 10.3346 14.876 9.48276 14.1586 8.78781C13.4637 8.07043 12.6118 7.50999 11.6702 7.12888Z" fill="#182138"/>
<path d="M8.73275 10.2207C10.9073 10.2207 12.6559 11.9693 12.6559 14.1214C12.6559 16.2735 10.9073 18.0221 8.73275 18.0221C6.58063 18.0221 4.83203 16.2735 4.83203 14.1214C4.83203 11.9693 6.58063 10.2207 8.73275 10.2207Z" fill="#ED5722"/>
<path d="M8.73232 9.99805C9.87564 9.99805 10.9069 10.4464 11.6691 11.2086C12.4089 11.9484 12.8572 12.9796 12.8572 14.1229C12.8572 15.2663 12.4089 16.2975 11.6691 17.0373C10.9069 17.7771 9.87564 18.2478 8.73232 18.2478C7.61142 18.2478 6.5802 17.7771 5.81799 17.0373C5.0782 16.2975 4.60742 15.2663 4.60742 14.1229C4.60742 12.9796 5.0782 11.9484 5.81799 11.2086C6.5802 10.4464 7.61142 9.99805 8.73232 9.99805ZM11.3552 11.5C10.6827 10.8499 9.76355 10.424 8.73232 10.424C7.72351 10.424 6.80438 10.8499 6.13184 11.5C5.4593 12.1726 5.05578 13.0917 5.05578 14.1229C5.05578 15.1318 5.4593 16.0509 6.13184 16.7234C6.80438 17.396 7.72351 17.7995 8.73232 17.7995C9.76355 17.7995 10.6827 17.396 11.3552 16.7234C12.0053 16.0509 12.4313 15.1318 12.4313 14.1229C12.4313 13.0917 12.0053 12.1726 11.3552 11.5ZM10.9293 27.7979C10.8172 27.7755 10.7275 27.6634 10.7499 27.5513C10.7724 27.4168 10.8844 27.3495 10.9965 27.3719H11.131L11.1535 27.3944H11.288L11.3104 27.4168H11.4225C11.5346 27.4392 11.6242 27.5513 11.6242 27.6634C11.6018 27.7755 11.4897 27.8651 11.3776 27.8651V27.8427H11.1983L11.1535 27.8203H11.0638L11.019 27.7979H10.9517H10.9293ZM22.4073 15.9388C22.4521 15.8267 22.5642 15.7595 22.6763 15.8043C22.7884 15.8491 22.8556 15.9836 22.8108 16.0957V16.1181L22.7884 16.1406V16.163C22.7435 16.2751 22.6314 16.3199 22.4969 16.2751C22.3848 16.2527 22.34 16.1181 22.3848 16.0061V15.9612H22.4073V15.9388ZM21.8244 17.1269C21.8916 17.0373 22.0262 17.0149 22.1158 17.0821C22.2279 17.1269 22.2503 17.2615 22.1831 17.3735V17.396L22.1607 17.4184V17.4408H22.1382V17.4632H22.1158V17.5081H22.0934V17.5305L22.071 17.5529L22.0486 17.5753V17.5977H22.0262V17.6201L22.0037 17.6426V17.665H21.9813V17.6874H21.9589V17.7098L21.9365 17.7322V17.7547C21.8468 17.8443 21.7123 17.8667 21.6226 17.7771C21.533 17.7098 21.5105 17.5753 21.5778 17.4856V17.4632H21.6002V17.4408H21.6226V17.4184L21.6451 17.396L21.6675 17.3735V17.3511H21.6899V17.3287H21.7123V17.2839H21.7347V17.2615L21.7571 17.239L21.7796 17.2166V17.1942H21.802V17.1494H21.8244V17.1269ZM20.6811 18.3151C20.7932 18.2478 20.9277 18.2927 20.9949 18.3824C21.0398 18.4944 21.0173 18.629 20.9277 18.6962H20.8828V18.7186H20.8604L20.838 18.741H20.8156L20.7932 18.7635H20.7708V18.7859H20.7259V18.8083H20.7035V18.8307H20.6587V18.8531H20.6138V18.8755H20.569V18.898H20.5242V18.9204C20.4121 18.9652 20.2776 18.9204 20.2327 18.8083C20.1655 18.6962 20.2103 18.5617 20.3224 18.5169H20.3448V18.4944H20.3896L20.4121 18.472H20.4345V18.4496H20.4793V18.4272H20.5017L20.5242 18.4048H20.5466L20.569 18.3824H20.5914V18.3599H20.6362V18.3375H20.6587L20.6811 18.3151ZM19.1342 18.9428C19.2463 18.898 19.3584 18.9652 19.4033 19.0997C19.4257 19.2118 19.3584 19.3239 19.2463 19.3463L19.2239 19.3687H19.1567V19.3912H19.067V19.4136H18.9773V19.436H18.8876V19.4584H18.8204C18.7083 19.5033 18.5738 19.4136 18.5514 19.3015C18.529 19.1894 18.5962 19.0773 18.7083 19.0325H18.7756L18.798 19.0101H18.8652L18.8876 18.9876H18.9549L18.9773 18.9652H19.0446L19.067 18.9428H19.1118H19.1342ZM17.4305 19.6378C17.5202 19.5481 17.6547 19.5481 17.7443 19.6378C17.834 19.7274 17.8116 19.8619 17.7443 19.9516H17.7219L17.6995 19.974V19.9964H17.6771L17.6547 20.0189V20.0413H17.6322V20.0637H17.6098V20.0861L17.5874 20.1085V20.131H17.565V20.1534L17.5426 20.1758V20.1982H17.5202V20.243C17.4529 20.3327 17.3184 20.3776 17.2287 20.3327C17.1166 20.2655 17.0718 20.131 17.1166 20.0413L17.139 20.0189V19.9964L17.1615 19.974V19.9516L17.1839 19.9292L17.2063 19.9068V19.8844L17.2287 19.8619L17.2511 19.8395L17.2736 19.8171V19.7947H17.296V19.7723L17.3184 19.7498V19.7274H17.3408V19.705H17.3632L17.3856 19.6826L17.4081 19.6602L17.4305 19.6378ZM17.1615 21.4984C17.0942 21.3864 17.139 21.2518 17.2511 21.207C17.3408 21.1398 17.4753 21.1846 17.5426 21.2967V21.3191H17.565V21.3639H17.5874V21.3864L17.6098 21.4088V21.4312H17.6322V21.4536L17.6547 21.476V21.4984H17.6771V21.5209L17.6995 21.5433L17.7219 21.5657L17.7443 21.5881V21.6105C17.834 21.7002 17.834 21.8347 17.7443 21.9244C17.6547 21.9916 17.5202 21.9916 17.4305 21.902L17.4081 21.8796L17.3856 21.8571L17.3632 21.8347V21.8123L17.3408 21.7899L17.3184 21.7675L17.296 21.745V21.7226L17.2736 21.7002L17.2511 21.6778V21.6554L17.2287 21.633L17.2063 21.6105V21.5881L17.1839 21.5657V21.5433L17.1615 21.5209V21.4984ZM18.7083 22.5297C18.5738 22.5073 18.5065 22.3952 18.529 22.2831C18.5514 22.171 18.6635 22.0813 18.7756 22.1037H18.8204V22.1261H18.9549L18.9773 22.1486H19.1118L19.1342 22.171H19.2015C19.3136 22.1934 19.4033 22.2831 19.3808 22.4176C19.3808 22.5297 19.2688 22.6193 19.1342 22.5969H19.0222V22.5745H18.8652L18.8428 22.5521H18.7307L18.7083 22.5297ZM20.4569 22.7314C20.3448 22.709 20.2551 22.6193 20.2551 22.4848C20.2551 22.3727 20.3672 22.2831 20.4793 22.2831H20.569L20.5914 22.3055H20.9053L20.9277 22.3279C21.0398 22.3279 21.1294 22.4176 21.1294 22.5521C21.1294 22.6642 21.0173 22.7539 20.9053 22.7539H20.7483L20.7259 22.7314H20.4793H20.4569ZM22.2055 22.8211C22.071 22.8211 21.9813 22.709 22.0037 22.5969C22.0037 22.4848 22.1158 22.3952 22.2279 22.3952H22.3176L22.3848 22.4176H22.5642L22.6314 22.44H22.6763C22.7884 22.4624 22.878 22.5521 22.878 22.6866C22.8556 22.7987 22.7435 22.8884 22.6314 22.8659H22.5194L22.4745 22.8435H22.2279L22.2055 22.8211ZM23.8868 23.1125C23.7523 23.0901 23.6851 22.9556 23.7299 22.8435C23.7523 22.7314 23.8868 22.6642 23.9989 22.709H24.0662L24.111 22.7314L24.1559 22.7539H24.2007L24.2455 22.7763L24.2904 22.7987H24.3352L24.38 22.8211L24.4249 22.8435C24.537 22.8884 24.6042 23.0229 24.5594 23.135C24.5145 23.247 24.38 23.2919 24.2679 23.247L24.2231 23.2246H24.1783L24.1559 23.2022H24.111L24.0662 23.1798L24.0214 23.1574H23.9765L23.9317 23.135L23.8868 23.1125ZM25.3664 23.8299C25.2768 23.7627 25.2543 23.6281 25.3216 23.5385C25.4113 23.4264 25.5458 23.4264 25.6354 23.4936L25.6579 23.5161L25.6803 23.5385L25.7251 23.5609L25.7475 23.5833L25.77 23.6057L25.7924 23.6281L25.8148 23.6506L25.8596 23.673L25.882 23.6954L25.9045 23.7402L25.9269 23.7627L25.9493 23.7851L25.9717 23.8075L25.9941 23.8299C26.0614 23.9196 26.0614 24.0541 25.9717 24.1213C25.882 24.211 25.7475 24.211 25.6579 24.1213V24.0989L25.6354 24.0765L25.613 24.0541L25.5906 24.0317L25.5682 24.0093L25.5458 23.9868H25.5234L25.5009 23.9644L25.4785 23.942L25.4561 23.9196L25.4337 23.8972L25.4113 23.8747L25.3888 23.8523L25.3664 23.8299ZM26.039 25.1302C26.0614 25.0181 26.1511 24.9284 26.2856 24.9508C26.3977 24.9508 26.4873 25.0629 26.4649 25.1974V25.2422L26.4425 25.2871V25.3543L26.4201 25.3992V25.4216L26.3977 25.444V25.5113L26.3752 25.5337V25.5561L26.3528 25.6009V25.6233L26.3304 25.6458V25.6682C26.2631 25.7803 26.1286 25.8251 26.0165 25.7803C25.9269 25.713 25.882 25.5785 25.9269 25.4664L25.9493 25.444V25.4216L25.9717 25.3992V25.3543L25.9941 25.3319V25.2871L26.0165 25.2647V25.1974L26.039 25.175V25.1526V25.1302ZM25.0974 26.2959C25.2095 26.251 25.344 26.2735 25.3888 26.3856C25.4561 26.4752 25.4337 26.6097 25.3216 26.677L25.2768 26.6994L25.2319 26.7218L25.2095 26.7442L25.1647 26.7667L25.1198 26.7891L25.0974 26.8115L25.0526 26.8339L25.0077 26.8563L24.9629 26.8787L24.9181 26.9012C24.806 26.946 24.6715 26.9012 24.6266 26.7891C24.5818 26.677 24.6266 26.5425 24.7387 26.4976L24.7836 26.4752L24.806 26.4528L24.8508 26.4304H24.8957L24.9181 26.408L24.9629 26.3856L24.9853 26.3631L25.0302 26.3407L25.0526 26.3183H25.0974V26.2959ZM23.5282 26.9012C23.6627 26.8787 23.7748 26.946 23.7972 27.0581C23.8196 27.1926 23.7523 27.3047 23.6402 27.3271L23.5954 27.3495H23.5506L23.4833 27.3719H23.4385L23.3712 27.3944H23.304L23.2591 27.4168H23.1919C23.0798 27.4392 22.9677 27.3719 22.9453 27.2599C22.9229 27.1253 23.0125 27.0133 23.1246 26.9908H23.1695L23.2367 26.9684H23.2816L23.3488 26.946H23.3937L23.4385 26.9236H23.5057L23.5282 26.9012ZM21.8468 27.1702C21.9589 27.1478 22.071 27.2374 22.071 27.3719C22.0934 27.484 22.0037 27.5961 21.8916 27.5961H21.802L21.7571 27.6185H21.5554L21.5105 27.641H21.4433C21.3312 27.641 21.2191 27.5513 21.2191 27.4392C21.1967 27.3271 21.2864 27.215 21.3985 27.1926H21.6451L21.6899 27.1702H21.802H21.8468ZM20.0982 27.3047C20.2327 27.3047 20.3224 27.3944 20.3448 27.5065C20.3448 27.641 20.2551 27.7306 20.143 27.753H19.9189L19.874 27.7755H19.6947C19.5826 27.7979 19.4705 27.6858 19.4705 27.5737C19.4705 27.4616 19.5602 27.3495 19.6723 27.3495H19.7171L19.7619 27.3271H20.031L20.0758 27.3047H20.0982ZM18.372 27.4392C18.4841 27.4168 18.5962 27.5065 18.5962 27.641C18.5962 27.753 18.5065 27.8651 18.3945 27.8651H18.2151L18.1479 27.8876H17.9461C17.834 27.8876 17.7219 27.7979 17.7219 27.6858C17.7219 27.5513 17.8116 27.4616 17.9237 27.4616H17.9461L17.9909 27.4392H18.3272H18.372ZM16.6234 27.5065C16.7355 27.5065 16.8476 27.5961 16.8476 27.7306C16.8476 27.8427 16.7579 27.9548 16.6459 27.9548H16.1975C16.0854 27.9772 15.9733 27.8651 15.9733 27.753C15.9733 27.641 16.063 27.5289 16.1975 27.5289H16.5113L16.5562 27.5065H16.6234ZM14.8748 27.5513C15.0093 27.5513 15.099 27.6634 15.099 27.7755C15.099 27.8876 15.0093 27.9996 14.8973 27.9996H14.4489C14.3368 27.9996 14.2247 27.91 14.2247 27.7755C14.2247 27.6634 14.3368 27.5513 14.4489 27.5513H14.83H14.8748ZM13.1487 27.5513C13.2607 27.5513 13.3504 27.641 13.3504 27.7755C13.3504 27.8876 13.2607 27.9772 13.1262 27.9772H12.8572L12.8124 27.9548H12.7003C12.5658 27.9548 12.4761 27.8427 12.4761 27.7306C12.4985 27.6185 12.5882 27.5065 12.7227 27.5289H13.0814L13.1262 27.5513H13.1487Z" fill="#182138"/>
</g>
<defs>
<clipPath id="clip0_876_62551">
<rect width="28" height="28" fill="white" transform="translate(0.619141)"/>
</clipPath>
</defs>
</svg>
