<svg width="24" height="24" viewBox="0 0 24 24" fill="none" xmlns="http://www.w3.org/2000/svg">
<path d="M22.166 12C22.166 17.5912 17.5912 22.166 12 22.166C6.40878 22.166 1.83398 17.5912 1.83398 12C1.83398 6.40877 6.40878 1.83398 12 1.83398C17.5912 1.83398 22.166 6.40877 22.166 12Z" stroke="#ED5722" stroke-width="1.5" stroke-miterlimit="10"/>
<path d="M17.0613 12C17.0613 17.5912 14.795 22.166 11.9994 22.166C9.2038 22.166 6.9375 17.5912 6.9375 12C6.9375 6.40877 9.2038 1.83398 11.9994 1.83398C14.795 1.83398 17.0613 6.40877 17.0613 12Z" stroke="#ED5722" stroke-width="1.5" stroke-miterlimit="10"/>
<path d="M12 1.83398V22.166" stroke="#ED5722" stroke-width="1.5" stroke-miterlimit="10"/>
<path d="M1.83398 12H22.166" stroke="#ED5722" stroke-width="1.5" stroke-miterlimit="10"/>
<path d="M20.7694 17.0625H3.23047" stroke="#ED5722" stroke-width="1.5" stroke-miterlimit="10"/>
<path d="M3.23047 6.89648H20.7694" stroke="#ED5722" stroke-width="1.5" stroke-miterlimit="10"/>
</svg>
