<svg width="10" height="15" viewBox="0 0 10 15" fill="none" xmlns="http://www.w3.org/2000/svg">
<path d="M1.69585 4.808L3.83252 3.256C4.07252 3.08067 4.36385 2.99067 4.66119 3C5.02352 3.00904 5.37405 3.13074 5.66402 3.34819C5.95399 3.56564 6.16901 3.86803 6.27919 4.21333C6.40319 4.602 6.51652 4.86467 6.61919 5.00133C6.92939 5.4152 7.3318 5.75107 7.79446 5.98229C8.25712 6.2135 8.7673 6.3337 9.28452 6.33333V7.66667C8.59606 7.66737 7.916 7.51545 7.29329 7.22185C6.67057 6.92824 6.12068 6.50025 5.68319 5.96867L5.21852 8.60533L6.59252 9.75867L8.07452 13.8307L6.82119 14.2867L5.46119 10.5507L3.20119 8.654C3.01572 8.50424 2.8738 8.30748 2.7902 8.08424C2.7066 7.86099 2.68438 7.61942 2.72585 7.38467L3.06519 5.46133L2.61385 5.78933L1.19585 7.74133L0.117188 6.95733L1.68452 4.8L1.69585 4.808ZM5.61785 2.66667C5.26423 2.66667 4.92509 2.52619 4.67505 2.27614C4.425 2.02609 4.28452 1.68696 4.28452 1.33333C4.28452 0.979711 4.425 0.640573 4.67505 0.390524C4.92509 0.140476 5.26423 0 5.61785 0C5.97148 0 6.31061 0.140476 6.56066 0.390524C6.81071 0.640573 6.95119 0.979711 6.95119 1.33333C6.95119 1.68696 6.81071 2.02609 6.56066 2.27614C6.31061 2.52619 5.97148 2.66667 5.61785 2.66667ZM3.63652 11.454L1.49385 14.0073L0.472521 13.1507L2.45652 10.7867L2.95385 9.33333L4.14785 10.3333L3.63652 11.454Z" fill="#182138"/>
</svg>
