<svg width="24" height="24" viewBox="0 0 24 24" fill="none" xmlns="http://www.w3.org/2000/svg">
<path d="M19.4274 18.205C18.3116 17.8189 16.8578 17.5268 15.2444 17.3595C15.5013 16.9698 15.7531 16.5767 15.9998 16.1804C18.3039 12.4766 19.4722 9.54638 19.4722 7.47098C19.4722 3.35147 16.1207 0 12.0013 0C7.88178 0 4.53031 3.35147 4.53031 7.47098C4.53031 9.54638 5.69863 12.4766 8.00272 16.1804C8.24941 16.5767 8.50125 16.9698 8.75816 17.3595C7.14477 17.5268 5.69089 17.8188 4.57517 18.205C2.83531 18.807 1.95312 19.6125 1.95312 20.5987C1.95312 21.704 3.05314 22.5777 5.22256 23.1957C7.04328 23.7144 9.45069 24 12.0013 24C14.5518 24 16.9592 23.7143 18.78 23.1957C20.9494 22.5777 22.0494 21.7039 22.0494 20.5987C22.0494 19.6125 21.1673 18.807 19.4274 18.205ZM6.03753 7.47098C6.03753 4.18252 8.71283 1.50722 12.0013 1.50722C15.2897 1.50722 17.965 4.18252 17.965 7.47098C17.965 9.23311 16.8455 11.9652 14.7278 15.3717C13.6855 17.0483 12.633 18.5099 12.0012 19.3565C11.3695 18.51 10.317 17.0483 9.27462 15.3717C7.15695 11.9652 6.03753 9.23316 6.03753 7.47098ZM18.367 21.7461C16.6768 22.2276 14.416 22.4928 12.0013 22.4928C9.58648 22.4928 7.3257 22.2276 5.63548 21.7461C3.83844 21.2342 3.4603 20.6855 3.4603 20.5987C3.4603 20.5168 3.74638 20.0867 5.06806 19.6293C6.25948 19.2171 7.9018 18.921 9.72805 18.7866C10.6677 20.1274 11.3661 21.0107 11.4108 21.0671C11.4814 21.156 11.5711 21.2279 11.6734 21.2773C11.7756 21.3267 11.8877 21.3524 12.0013 21.3524C12.1148 21.3524 12.2269 21.3267 12.3291 21.2773C12.4314 21.2279 12.5211 21.156 12.5917 21.0671C12.6364 21.0107 13.3348 20.1274 14.2745 18.7866C16.1007 18.921 17.7431 19.217 18.9345 19.6293C20.2561 20.0867 20.5422 20.5168 20.5422 20.5987C20.5422 20.6855 20.1641 21.2342 18.367 21.7461Z" fill="#ED5722"/>
<path d="M12.0015 3.97949C10.0761 3.97949 8.50977 5.54591 8.50977 7.47121C8.50977 9.39651 10.0762 10.9629 12.0015 10.9629C13.9268 10.9629 15.4932 9.39651 15.4932 7.47121C15.4932 5.54591 13.9268 3.97949 12.0015 3.97949ZM12.0015 9.45576C10.9072 9.45576 10.017 8.56551 10.017 7.47126C10.017 6.37696 10.9072 5.48676 12.0015 5.48676C13.0957 5.48676 13.986 6.37701 13.986 7.47126C13.986 8.56551 13.0957 9.45576 12.0015 9.45576Z" fill="#ED5722"/>
</svg>
