<svg width="33" height="32" viewBox="0 0 33 32" fill="none" xmlns="http://www.w3.org/2000/svg">
<g clip-path="url(#clip0_876_65481)">
<path d="M16.6172 0C10.0012 0 4.61719 5.42133 4.61719 12.0867C4.61719 21.5573 15.4892 31.336 15.9519 31.7467C16.1347 31.9104 16.3715 32.001 16.6169 32.0012C16.8624 32.0015 17.0993 31.9113 17.2825 31.748C17.7452 31.336 28.6172 21.5573 28.6172 12.0867C28.6172 5.42133 23.2332 0 16.6172 0ZM16.6172 18.6667C12.9412 18.6667 9.95052 15.676 9.95052 12C9.95052 8.324 12.9412 5.33333 16.6172 5.33333C20.2932 5.33333 23.2839 8.324 23.2839 12C23.2839 15.676 20.2932 18.6667 16.6172 18.6667Z" fill="#ED5722"/>
<circle cx="16.8609" cy="12.2437" r="7.7554" fill="#ED5722"/>
</g>
<defs>
<clipPath id="clip0_876_65481">
<rect width="32" height="32" fill="white" transform="translate(0.617188)"/>
</clipPath>
</defs>
</svg>
