<svg width="31" height="30" viewBox="0 0 31 30" fill="none" xmlns="http://www.w3.org/2000/svg">
<path d="M5.89649 18.8891C5.40203 18.8891 4.91868 19.0357 4.50756 19.3104C4.09644 19.5851 3.77601 19.9756 3.58679 20.4324C3.39757 20.8892 3.34806 21.3919 3.44452 21.8768C3.54099 22.3618 3.77909 22.8072 4.12872 23.1569C4.47835 23.5065 4.92381 23.7446 5.40876 23.8411C5.89371 23.9375 6.39638 23.888 6.85319 23.6988C7.31001 23.5096 7.70046 23.1892 7.97516 22.778C8.24986 22.3669 8.39649 21.8836 8.39649 21.3891C8.39502 20.7265 8.13115 20.0915 7.66263 19.623C7.19411 19.1544 6.55908 18.8906 5.89649 18.8891ZM5.89649 22.778C5.62179 22.778 5.35326 22.6965 5.12486 22.5439C4.89646 22.3913 4.71844 22.1744 4.61332 21.9206C4.5082 21.6668 4.48069 21.3876 4.53428 21.1181C4.58787 20.8487 4.72015 20.6013 4.91439 20.407C5.10863 20.2128 5.35611 20.0805 5.62553 20.0269C5.89494 19.9733 6.1742 20.0008 6.42799 20.1059C6.68178 20.2111 6.89869 20.3891 7.05131 20.6175C7.20392 20.8459 7.28537 21.1144 7.28537 21.3891C7.28537 21.7575 7.13905 22.1107 6.87858 22.3712C6.61811 22.6317 6.26484 22.778 5.89649 22.778ZM25.3409 18.8891C24.8465 18.8891 24.3631 19.0357 23.952 19.3104C23.5409 19.5851 23.2205 19.9756 23.0312 20.4324C22.842 20.8892 22.7925 21.3919 22.889 21.8768C22.9854 22.3618 23.2235 22.8072 23.5732 23.1569C23.9228 23.5065 24.3683 23.7446 24.8532 23.8411C25.3382 23.9375 25.8408 23.888 26.2976 23.6988C26.7545 23.5096 27.1449 23.1892 27.4196 22.778C27.6943 22.3669 27.8409 21.8836 27.8409 21.3891C27.8395 20.7265 27.5756 20.0915 27.1071 19.623C26.6386 19.1544 26.0035 18.8906 25.3409 18.8891ZM25.3409 22.778C25.0662 22.778 24.7977 22.6965 24.5693 22.5439C24.3409 22.3913 24.1629 22.1744 24.0578 21.9206C23.9526 21.6668 23.9251 21.3876 23.9787 21.1181C24.0323 20.8487 24.1646 20.6013 24.3588 20.407C24.5531 20.2128 24.8006 20.0805 25.07 20.0269C25.3394 19.9733 25.6187 20.0008 25.8724 20.1059C26.1262 20.2111 26.3431 20.3891 26.4958 20.6175C26.6484 20.8459 26.7298 21.1144 26.7298 21.3891C26.7298 21.7575 26.5835 22.1107 26.323 22.3712C26.0626 22.6317 25.7093 22.778 25.3409 22.778ZM20.6187 19.4447H10.6187C9.27426 19.4447 10.3409 23.3336 13.3965 23.3336H17.8409C20.9076 23.3336 21.9576 19.4447 20.6187 19.4447ZM17.8409 22.2224H13.3965C12.9041 22.2221 12.4258 22.0582 12.0367 21.7565C11.6475 21.4549 11.3696 21.0325 11.2465 20.5558H19.9909C19.8678 21.0325 19.5899 21.4549 19.2008 21.7565C18.8116 22.0582 18.3333 22.2221 17.8409 22.2224ZM25.6187 13.8891C25.6187 13.8169 25.6965 14.2836 24.5576 7.91133C24.4597 7.40529 24.1889 6.94904 23.7916 6.62067C23.3943 6.2923 22.8952 6.11225 22.3798 6.11133H8.8576C8.34218 6.11225 7.8431 6.2923 7.44582 6.62067C7.04853 6.94904 6.77775 7.40529 6.67982 7.91133C5.55204 14.2058 5.61871 13.8113 5.61871 13.8891C5.61871 14.3311 5.7943 14.7551 6.10686 15.0676C6.41942 15.3802 6.84335 15.5558 7.28537 15.5558H23.952C24.3941 15.5558 24.818 15.3802 25.1306 15.0676C25.4431 14.7551 25.6187 14.3311 25.6187 13.8891ZM6.72982 13.928L7.76871 8.12244C7.81836 7.86564 7.95701 7.63459 8.16026 7.46996C8.3635 7.30533 8.61831 7.21768 8.87982 7.22244H22.3798C22.6405 7.21744 22.8947 7.30431 23.0979 7.46783C23.301 7.63135 23.4401 7.86111 23.4909 8.11688L24.5076 13.928C24.4977 14.0685 24.4349 14.2 24.3317 14.2959C24.2286 14.3918 24.0929 14.445 23.952 14.4447H7.28537C7.14453 14.445 7.00881 14.3918 6.90567 14.2959C6.80253 14.2 6.73968 14.0685 6.72982 13.928Z" fill="#182138"/>
<path d="M30.6191 12.5001V11.389C30.619 10.9929 30.4976 10.6063 30.2711 10.2813C30.0447 9.95623 29.7241 9.70836 29.3526 9.571C28.981 9.43363 28.5763 9.41337 28.1929 9.51293C27.8095 9.6125 27.4658 9.82711 27.208 10.1279L26.758 7.51678C26.5675 6.49774 26.0268 5.57734 25.2294 4.91486C24.432 4.25238 23.4281 3.8895 22.3914 3.889H19.9914L19.708 1.90567C19.6319 1.37654 19.3675 0.892608 18.9634 0.542609C18.5593 0.19261 18.0426 5.96575e-06 17.508 0.00011566H13.7303C13.1919 -0.00537506 12.6698 0.184796 12.261 0.535283C11.8523 0.885771 11.5847 1.37274 11.508 1.90567L11.2469 3.889H8.84692C7.80847 3.88844 6.80261 4.25152 6.00394 4.91522C5.20527 5.57892 4.66421 6.50133 4.4747 7.52234L4.03025 10.1279C3.77248 9.82711 3.42877 9.6125 3.04535 9.51293C2.66194 9.41337 2.25724 9.43363 1.88569 9.571C1.51414 9.70836 1.19358 9.95623 0.967142 10.2813C0.740706 10.6063 0.619258 10.9929 0.619141 11.389V12.5001C0.620944 12.9024 0.747479 13.2942 0.981306 13.6216C1.21513 13.9489 1.54474 14.1957 1.9247 14.3279C1.5142 14.702 1.18611 15.1575 0.961337 15.6654C0.736562 16.1733 0.620022 16.7225 0.619141 17.2779V23.889C0.621481 24.2768 0.725271 24.6573 0.920195 24.9925C1.11512 25.3278 1.39439 25.6062 1.73025 25.8001V27.7779C1.73025 29.1057 2.68025 28.889 1.1747 28.889C1.02735 28.889 0.886046 28.9475 0.781859 29.0517C0.677672 29.1559 0.619141 29.2972 0.619141 29.4446C0.619141 29.5919 0.677672 29.7332 0.781859 29.8374C0.886046 29.9416 1.02735 30.0001 1.1747 30.0001H30.0636C30.2109 30.0001 30.3522 29.9416 30.4564 29.8374C30.5606 29.7332 30.6191 29.5919 30.6191 29.4446C30.6191 29.2972 30.5606 29.1559 30.4564 29.0517C30.3522 28.9475 30.2109 28.889 30.0636 28.889H29.1969C29.6136 28.1835 29.508 27.7168 29.508 25.8001C29.8439 25.6062 30.1232 25.3278 30.3181 24.9925C30.513 24.6573 30.6168 24.2768 30.6191 23.889V17.2779C30.6183 16.7225 30.5017 16.1733 30.2769 15.6654C30.0522 15.1575 29.7241 14.702 29.3136 14.3279C29.6935 14.1957 30.0231 13.9489 30.257 13.6216C30.4908 13.2942 30.6173 12.9024 30.6191 12.5001ZM12.6303 2.06678C12.6677 1.80171 12.7997 1.55909 13.0018 1.38352C13.2039 1.20796 13.4625 1.11127 13.7303 1.11123H17.508C17.7776 1.10857 18.039 1.20405 18.2435 1.37986C18.4479 1.55566 18.5814 1.79981 18.6191 2.06678L18.8691 3.889H12.3691L12.6303 2.06678ZM1.73025 11.389C1.73025 11.168 1.81805 10.956 1.97433 10.7997C2.13061 10.6435 2.34257 10.5557 2.56359 10.5557C2.7846 10.5557 2.99656 10.6435 3.15284 10.7997C3.30912 10.956 3.39692 11.168 3.39692 11.389V13.3334H2.56359C2.34257 13.3334 2.13061 13.2457 1.97433 13.0894C1.81805 12.9331 1.73025 12.7211 1.73025 12.5001V11.389ZM3.95247 28.889C3.65779 28.889 3.37517 28.7719 3.1668 28.5636C2.95843 28.3552 2.84136 28.0726 2.84136 27.7779V26.1112H7.84136V27.7779C7.84136 28.0726 7.7243 28.3552 7.51593 28.5636C7.30755 28.7719 7.02494 28.889 6.73025 28.889H3.95247ZM10.8469 25.5557H20.3914C21.0803 26.2446 20.7858 26.1112 22.2858 26.1112C22.2858 27.7335 22.1858 28.1946 22.5969 28.889H8.64136C9.01914 28.2446 8.95247 27.9557 8.95247 26.1112C10.4691 26.1112 10.1747 26.2279 10.8469 25.5557ZM28.3969 27.7779C28.3969 28.0726 28.2799 28.3552 28.0715 28.5636C27.8631 28.7719 27.5805 28.889 27.2858 28.889H24.508C24.2133 28.889 23.9307 28.7719 23.7224 28.5636C23.514 28.3552 23.3969 28.0726 23.3969 27.7779V26.1112H28.3969V27.7779ZM29.508 17.2779V23.889C29.508 24.1837 29.391 24.4663 29.1826 24.6747C28.9742 24.8831 28.6916 25.0001 28.3969 25.0001H21.4025C21.0469 24.639 20.9136 24.4446 20.6191 24.4446C9.30247 24.4446 10.5858 24.2501 9.83581 25.0001H2.84136C2.54668 25.0001 2.26406 24.8831 2.05569 24.6747C1.84731 24.4663 1.73025 24.1837 1.73025 23.889V17.2779C1.73378 16.6093 1.96781 15.9623 2.39288 15.4461C2.81795 14.93 3.40803 14.5762 4.06359 14.4446C4.58581 14.339 4.45247 14.2612 5.56914 7.72789C5.71066 6.96186 6.116 6.26959 6.71477 5.77129C7.31354 5.27299 8.06792 5.00014 8.84692 5.00012H22.3914C23.167 5.0007 23.9182 5.27178 24.5155 5.76665C25.1128 6.26152 25.5188 6.9492 25.6636 7.71123L26.7303 13.9834C26.7534 14.0923 26.807 14.1923 26.8846 14.2719C26.9623 14.3515 27.061 14.4076 27.1691 14.4334C27.8276 14.5644 28.4204 14.9193 28.8468 15.4378C29.2731 15.9564 29.5068 16.6066 29.508 17.2779ZM29.508 12.5001C29.508 12.7211 29.4202 12.9331 29.264 13.0894C29.1077 13.2457 28.8957 13.3334 28.6747 13.3334H27.8414V11.389C27.8414 11.168 27.9292 10.956 28.0854 10.7997C28.2417 10.6435 28.4537 10.5557 28.6747 10.5557C28.8957 10.5557 29.1077 10.6435 29.264 10.7997C29.4202 10.956 29.508 11.168 29.508 11.389V12.5001Z" fill="#182138"/>
</svg>
