<svg width="21" height="18" viewBox="0 0 21 18" fill="none" xmlns="http://www.w3.org/2000/svg">
<path d="M10.92 0.315004C11.726 -0.399996 13 0.171004 13 1.25V16.745C13 17.824 11.726 18.396 10.92 17.679L6.428 13.686C6.29086 13.5638 6.11366 13.4962 5.93 13.496H2.25C1.65326 13.496 1.08097 13.259 0.65901 12.837C0.237053 12.415 0 11.8427 0 11.246V6.748C0 6.15127 0.237053 5.57897 0.65901 5.15701C1.08097 4.73506 1.65326 4.498 2.25 4.498H5.93C6.11366 4.49778 6.29086 4.43018 6.428 4.308L10.92 0.315004ZM11.5 1.806L7.425 5.43C7.01304 5.79603 6.48108 5.99814 5.93 5.998H2.25C2.05109 5.998 1.86032 6.07702 1.71967 6.21767C1.57902 6.35833 1.5 6.54909 1.5 6.748V11.246C1.5 11.66 1.836 11.996 2.25 11.996H5.93C6.48121 11.9961 7.01319 12.1986 7.425 12.565L11.5 16.188V1.806ZM14.22 6.219C14.3606 6.07855 14.5512 5.99966 14.75 5.99966C14.9488 5.99966 15.1394 6.07855 15.28 6.219L17 7.94L18.72 6.22C18.7887 6.14632 18.8715 6.08721 18.9635 6.04622C19.0555 6.00523 19.1548 5.98319 19.2555 5.98141C19.3562 5.97964 19.4562 5.99816 19.5496 6.03588C19.643 6.0736 19.7278 6.12975 19.799 6.20097C19.8703 6.27218 19.9264 6.35702 19.9641 6.45041C20.0018 6.54379 20.0204 6.64382 20.0186 6.74453C20.0168 6.84523 19.9948 6.94454 19.9538 7.03654C19.9128 7.12854 19.8537 7.21134 19.78 7.28L18.06 9L19.78 10.72C19.9125 10.8622 19.9846 11.0502 19.9812 11.2445C19.9777 11.4388 19.899 11.6242 19.7616 11.7616C19.6242 11.899 19.4388 11.9778 19.2445 11.9812C19.0502 11.9846 18.8622 11.9125 18.72 11.78L17 10.06L15.28 11.78C15.2113 11.8537 15.1285 11.9128 15.0365 11.9538C14.9445 11.9948 14.8452 12.0168 14.7445 12.0186C14.6438 12.0204 14.5438 12.0018 14.4504 11.9641C14.357 11.9264 14.2722 11.8703 14.201 11.799C14.1297 11.7278 14.0736 11.643 14.0359 11.5496C13.9982 11.4562 13.9796 11.3562 13.9814 11.2555C13.9832 11.1548 14.0052 11.0555 14.0462 10.9635C14.0872 10.8715 14.1463 10.7887 14.22 10.72L15.94 9L14.22 7.28C14.0795 7.13938 14.0007 6.94875 14.0007 6.75C14.0007 6.55125 14.0795 6.36063 14.22 6.22" fill="white"/>
</svg>
