<svg width="20" height="18" viewBox="0 0 20 18" fill="none" xmlns="http://www.w3.org/2000/svg">
<path d="M13 1.25C13 0.17 11.726 -0.401 10.92 0.315L6.427 4.31C6.28986 4.43217 6.11266 4.49978 5.929 4.5H2.25C1.65361 4.5 1.08162 4.73678 0.659716 5.1583C0.237817 5.57983 0.000530125 6.15161 0 6.748V11.245C0 11.8417 0.237053 12.414 0.65901 12.836C1.08097 13.2579 1.65326 13.495 2.25 13.495H5.93C6.11366 13.4952 6.29086 13.5628 6.428 13.685L10.919 17.678C11.725 18.395 13 17.823 13 16.744V1.25ZM7.425 5.43L11.5 1.806V16.188L7.425 12.565C7.01319 12.1986 6.48121 11.9961 5.93 11.996H2.25C2.05109 11.996 1.86032 11.917 1.71967 11.7763C1.57902 11.6357 1.5 11.4449 1.5 11.246V6.748C1.5 6.54909 1.57902 6.35832 1.71967 6.21767C1.86032 6.07702 2.05109 5.998 2.25 5.998H5.93C6.48108 5.99814 7.01304 5.79603 7.425 5.43ZM16.992 2.897C17.1518 2.7786 17.3521 2.72853 17.5488 2.75778C17.7455 2.78704 17.9226 2.89323 18.041 3.053C19.3163 4.7732 20.0033 6.85862 20 9C20.003 11.1415 19.3157 13.2269 18.04 14.947C17.982 15.0278 17.9085 15.0963 17.8238 15.1484C17.7391 15.2005 17.6449 15.2353 17.5467 15.2507C17.4484 15.2661 17.3481 15.2618 17.2515 15.238C17.1549 15.2142 17.064 15.1715 16.9841 15.1123C16.9042 15.0531 16.8369 14.9785 16.786 14.8931C16.7352 14.8076 16.7019 14.7128 16.688 14.6144C16.6741 14.5159 16.68 14.4156 16.7052 14.3194C16.7305 14.2232 16.7746 14.133 16.835 14.054C17.9192 12.5923 18.5031 10.8199 18.5 9C18.5028 7.18044 17.919 5.40845 16.835 3.947C16.7763 3.86778 16.7337 3.77776 16.7099 3.68209C16.686 3.58641 16.6812 3.48697 16.6957 3.38944C16.7103 3.29191 16.744 3.19822 16.7948 3.11372C16.8457 3.02922 16.9127 2.95558 16.992 2.897ZM15.143 5.369C15.2296 5.32203 15.3246 5.29258 15.4226 5.28234C15.5206 5.2721 15.6196 5.28126 15.7141 5.30931C15.8085 5.33735 15.8965 5.38373 15.973 5.44579C16.0495 5.50785 16.1131 5.58438 16.16 5.671C16.696 6.662 17 7.796 17 9C17.0005 10.1619 16.7119 11.3056 16.16 12.328C16.1131 12.4147 16.0496 12.4913 15.9731 12.5534C15.8967 12.6155 15.8087 12.662 15.7143 12.6901C15.6198 12.7183 15.5208 12.7275 15.4227 12.7174C15.3247 12.7072 15.2297 12.6779 15.143 12.631C15.0563 12.5841 14.9797 12.5206 14.9176 12.4441C14.8555 12.3677 14.809 12.2797 14.7809 12.1853C14.7527 12.0908 14.7435 11.9918 14.7536 11.8937C14.7638 11.7957 14.7931 11.7007 14.84 11.614C15.26 10.837 15.5 9.947 15.5 8.999C15.5003 8.0864 15.2735 7.18808 14.84 6.385C14.7455 6.21007 14.7244 6.0048 14.7812 5.81428C14.838 5.62377 14.9682 5.46361 15.143 5.369Z" fill="white"/>
</svg>
