<svg width="167" height="167" viewBox="0 0 167 167" fill="none" xmlns="http://www.w3.org/2000/svg">
<path fill-rule="evenodd" clip-rule="evenodd" d="M134.689 93.9118L129.908 88.0515L125.026 94.0368C123.414 93.6447 121.891 93.0357 120.458 92.2099C117.729 90.6374 115.555 88.5098 113.937 85.8273C112.364 83.0986 111.578 80 111.578 76.5311C111.578 73.0626 112.364 69.964 113.937 67.2352C115.555 64.5065 117.729 62.3788 120.458 60.8527C123.187 59.2802 126.239 58.4941 129.615 58.4941C132.991 58.4941 136.044 59.2802 138.772 60.8527C141.501 62.3788 143.652 64.5065 145.224 67.2352C146.843 69.964 147.652 73.0626 147.652 76.5311C147.652 80 146.843 83.0986 145.224 85.8273C143.652 88.5098 141.501 90.6374 138.772 92.2099C137.484 92.9526 136.123 93.5198 134.689 93.9118ZM132.668 83.4688C131.789 84.0236 130.771 84.3012 129.615 84.3012C128.505 84.3012 127.488 84.0236 126.563 83.4688C125.684 82.8673 124.967 81.9886 124.412 80.8324C123.904 79.6761 123.649 78.2425 123.649 76.5311C123.649 74.82 123.904 73.3862 124.412 72.2302C124.967 71.0739 125.684 70.2184 126.563 69.6632C127.488 69.0621 128.528 68.7614 129.685 68.7614C130.795 68.7614 131.789 69.0621 132.668 69.6632C133.546 70.2184 134.24 71.0739 134.749 72.2302C135.304 73.3862 135.581 74.82 135.581 76.5311C135.581 78.2425 135.304 79.6761 134.749 80.8324C134.24 81.9886 133.546 82.8673 132.668 83.4688Z" fill="white"/>
<path fill-rule="evenodd" clip-rule="evenodd" d="M78.6443 92.805C80.0882 93.5464 81.8942 93.975 84.0626 94.0908L108.629 94.1437H108.753V72.1316C108.753 68.9867 108.012 66.3737 106.533 64.2924C105.099 62.2111 103.087 60.6618 100.497 59.6445C97.907 58.5805 94.947 58.0488 91.6171 58.0488C88.3799 58.0488 85.5125 58.6036 83.015 59.7136C81.3313 60.4762 79.8938 61.4766 78.6938 62.6576L78.7043 62.6557C77.6622 63.9956 75.8904 67.6132 77.1409 71.3651L77.1419 71.3684C80.1466 68.9404 84.3973 67.8314 86.3057 67.5711L84.0075 64.4108L87.4552 63.5491L90.3281 66.709C92.5307 66.4217 96.9934 66.3643 97.2233 68.4328C97.4533 70.5014 95.2122 71.0187 94.0631 71.0187H90.3281L88.8916 75.3281H86.0184L86.3057 71.5931C85.474 71.6218 84.6784 71.7494 83.9201 71.9568C76.7075 73.0785 74.4187 78.2509 73.9477 81.7018C73.7951 82.4139 73.7188 83.1549 73.7188 83.925C73.7188 85.8214 74.1118 87.5556 74.8982 89.1281C75.6843 90.6543 76.9332 91.88 78.6443 92.805Z" fill="white"/>
<path d="M103.252 86.8356C103.252 86.4664 103.625 86.167 104.082 86.167C104.082 86.167 103.976 86.5711 103.976 86.8356C103.976 87.1002 104.082 87.5046 104.082 87.5046C103.625 87.504 103.252 87.2042 103.252 86.8356Z" fill="#ED5722"/>
<path d="M86.1054 77.8408H100.868V79.0304H99.7763C100.635 79.5604 101.859 81.4075 101.859 81.4075C101.859 81.4075 104.274 86.1288 102.75 88.1452C98.8855 88.0458 99.1836 91.7116 99.1836 91.7116H89.6525C89.7791 91.3822 89.8443 91.0325 89.8447 90.6796C89.8437 89.9082 89.5368 89.1684 88.9911 88.6231C88.4457 88.0777 87.706 87.7708 86.9346 87.7701C86.1632 87.7711 85.4237 88.0781 84.8784 88.6234C84.333 89.1688 84.0261 89.9082 84.0251 90.6796C84.0251 90.8078 84.0359 90.934 84.0525 91.0576C83.5851 90.7292 83.2035 90.2928 82.9399 89.7859C82.6767 89.2787 82.5391 88.7157 82.5391 88.1443V81.4069C82.5391 80.9385 82.6314 80.475 82.8104 80.0422C82.9898 79.6097 83.2524 79.2163 83.5838 78.8852C83.9149 78.5542 84.3082 78.2916 84.7407 78.1122C85.1735 77.9331 85.6374 77.8408 86.1054 77.8408ZM94.8325 90.6796H97.4572C97.4572 90.6796 97.0058 87.0708 100.083 86.166C100.083 86.166 99.9844 81.4626 97.7051 79.6514H94.8325V90.6796ZM88.1378 86.166C91.2146 87.0708 90.7638 90.6796 90.7638 90.6796H93.3888V79.6517H88.1378V86.166Z" fill="#ED5722"/>
<path d="M100.403 88.9341C101.444 88.1422 102.64 88.2925 102.693 88.2981L102.653 88.7315C103.143 88.8428 103.581 89.1174 103.896 89.5104C104.21 89.9032 104.382 90.3911 104.383 90.8944C104.382 91.4825 104.148 92.0464 103.731 92.4623C103.315 92.8782 102.751 93.1124 102.163 93.113C101.602 93.1117 101.062 92.8984 100.651 92.5155C100.241 92.1322 99.9909 91.6081 99.9514 91.048C99.9178 91.2545 99.895 91.473 99.8868 91.7075L99.2935 91.6893C99.332 90.4606 99.7273 89.5104 100.403 88.9341ZM102.163 92.5187C102.594 92.5184 103.007 92.3472 103.312 92.0428C103.616 91.7382 103.788 91.3249 103.788 90.8944C103.788 89.9984 103.06 89.2697 102.163 89.2697C101.267 89.2697 100.54 89.9987 100.54 90.8944C100.54 91.3249 100.711 91.7379 101.015 92.0425C101.32 92.3472 101.732 92.5184 102.163 92.5187ZM87.019 88.3079C87.644 88.3085 88.2435 88.5574 88.6854 88.9997C89.1274 89.4416 89.3759 90.0411 89.3766 90.6664C89.3766 91.9678 88.3192 93.0256 87.019 93.0256C85.7186 93.0256 84.6602 91.9678 84.6602 90.6664C84.6611 90.0411 84.91 89.4416 85.352 88.9997C85.7943 88.5574 86.3938 88.3088 87.019 88.3079ZM87.019 92.431C87.991 92.431 88.783 91.6397 88.783 90.6664C88.783 89.6934 87.991 88.9025 87.019 88.9025C86.551 88.9028 86.1025 89.0887 85.7714 89.4194C85.4404 89.7502 85.2541 90.1987 85.2535 90.6664C85.2544 91.1345 85.4407 91.5826 85.7717 91.9134C86.1025 92.2441 86.551 92.4303 87.019 92.431Z" fill="#ED5722"/>
<path opacity="0.5" d="M87.0002 92.4372C86.0111 92.4372 85.2093 91.6457 85.2093 90.6693C85.2093 89.6929 86.0111 88.9014 87.0002 88.9014C87.9892 88.9014 88.791 89.6929 88.791 90.6693C88.791 91.6457 87.9892 92.4372 87.0002 92.4372Z" fill="#ED5722"/>
<path d="M86.6076 91.2045C86.6021 91.2097 86.5959 91.2146 86.5894 91.2185C86.683 91.2909 86.7942 91.3369 86.9116 91.3522C86.91 91.3447 86.9087 91.3369 86.9087 91.3291V90.9034L86.6076 91.2045ZM86.4674 91.0965C86.4713 91.09 86.4758 91.0835 86.4814 91.0779L86.7825 90.7772H86.3568C86.349 90.7772 86.3411 90.7759 86.3336 90.7736C86.3486 90.8914 86.395 91.0026 86.4674 91.0965ZM87.0874 90.4719L87.3882 90.1712C87.394 90.1653 87.4002 90.1604 87.4071 90.1565C87.3131 90.0841 87.2016 90.0381 87.0842 90.0231C87.0864 90.0303 87.0874 90.0381 87.0874 90.0462V90.4719ZM87.5291 90.2788C87.5251 90.2857 87.5206 90.2915 87.5147 90.2974L87.2136 90.5985H87.6393C87.6471 90.5985 87.6553 90.5991 87.6628 90.6014C87.6471 90.481 87.5995 90.3705 87.5291 90.2788ZM87.5147 91.0779C87.5206 91.0835 87.5251 91.09 87.5291 91.0965C87.6015 91.0026 87.6475 90.8914 87.6628 90.7736C87.6553 90.7759 87.6471 90.7772 87.6393 90.7772H87.2136L87.5147 91.0779ZM87.4071 91.2185C87.4002 91.2146 87.394 91.2097 87.3882 91.2045L87.0874 90.9034V91.3291C87.0874 91.3369 87.0864 91.3447 87.0845 91.3522C87.2019 91.3369 87.3131 91.2909 87.4071 91.2185ZM86.7825 90.5985L86.4814 90.2974C86.4758 90.2915 86.4713 90.2857 86.4674 90.2788C86.395 90.3724 86.3486 90.484 86.3336 90.6014C86.3411 90.5991 86.349 90.5985 86.3568 90.5985H86.7825ZM86.5894 90.1565C86.5959 90.1604 86.6024 90.1653 86.6076 90.1712L86.9087 90.4719V90.0462C86.9087 90.0381 86.91 90.0303 86.9116 90.0231C86.7913 90.0384 86.6807 90.086 86.5894 90.1565ZM86.9981 89.2188C87.8096 89.2188 88.4671 89.8763 88.4671 90.6878C88.4671 91.499 87.8096 92.1566 86.9981 92.1566C86.1869 92.1566 85.5293 91.499 85.5293 90.6878C85.5293 89.8763 86.1869 89.2188 86.9981 89.2188Z" fill="#ED5722"/>
<path d="M87.0226 88.3125C87.6479 88.3132 88.2474 88.562 88.6894 89.0043C89.1313 89.4463 89.3799 90.0458 89.3805 90.671C89.3805 91.9725 88.3231 93.0302 87.0226 93.0302C85.7225 93.0302 84.6641 91.9725 84.6641 90.671C84.665 90.0458 84.9139 89.4463 85.3559 89.0043C85.7982 88.562 86.3973 88.3135 87.0226 88.3125ZM87.0226 92.4356C87.9949 92.4356 88.7869 91.644 88.7869 90.671C88.7869 89.6981 87.9949 88.9071 87.0226 88.9071C86.5549 88.9074 86.1061 89.0934 85.7753 89.4241C85.4443 89.7548 85.258 90.2033 85.2574 90.671C85.2583 91.1388 85.4446 91.5873 85.7757 91.918C86.1064 92.2487 86.5549 92.435 87.0226 92.4356Z" fill="#ED5722"/>
<path d="M87.0002 92.4352C86.0111 92.4352 85.2093 91.6437 85.2093 90.6673C85.2093 89.6909 86.0111 88.8994 87.0002 88.8994C87.9892 88.8994 88.791 89.6909 88.791 90.6673C88.791 91.6437 87.9892 92.4352 87.0002 92.4352Z" fill="white"/>
<path d="M86.5924 91.2215C86.5868 91.2271 86.5803 91.232 86.5735 91.2362C86.67 91.3106 86.7848 91.3582 86.9058 91.3739C86.9039 91.3664 86.9026 91.3582 86.9026 91.35V90.911L86.5924 91.2215ZM86.4476 91.1103C86.4518 91.1035 86.4564 91.0969 86.4622 91.0911L86.7728 90.7809H86.3337C86.3256 90.7809 86.3174 90.7799 86.3099 90.7776C86.3253 90.8989 86.3729 91.0138 86.4476 91.1103ZM87.0869 90.4665L87.3971 90.1563C87.4029 90.1504 87.4094 90.1455 87.4163 90.1413C87.3198 90.0666 87.2046 90.0193 87.0836 90.0039C87.0859 90.0114 87.0869 90.0193 87.0869 90.0278V90.4665ZM87.5419 90.2675C87.538 90.2743 87.5334 90.2805 87.5275 90.2864L87.217 90.5969H87.656C87.6642 90.5969 87.672 90.5976 87.6798 90.5999C87.6642 90.4756 87.6149 90.3617 87.5419 90.2675ZM87.5275 91.0911C87.5334 91.0969 87.538 91.1035 87.5419 91.1103C87.6166 91.0138 87.6642 90.8989 87.6798 90.7776C87.672 90.7799 87.6642 90.7809 87.656 90.7809H87.217L87.5275 91.0911ZM87.4163 91.2362C87.4094 91.232 87.4029 91.2271 87.3971 91.2215L87.0869 90.911V91.35C87.0869 91.3582 87.0859 91.3664 87.0839 91.3739C87.2049 91.3582 87.3198 91.3106 87.4163 91.2362ZM86.7728 90.5969L86.4622 90.2864C86.4564 90.2805 86.4518 90.2743 86.4476 90.2675C86.3729 90.364 86.3253 90.4788 86.3099 90.5999C86.3174 90.5976 86.3256 90.5969 86.3337 90.5969H86.7728ZM86.5735 90.1413C86.5803 90.1455 86.5868 90.1504 86.5924 90.1563L86.9026 90.4665V90.0278C86.9026 90.0193 86.9039 90.0114 86.9058 90.0039C86.7816 90.0196 86.6677 90.0685 86.5735 90.1413ZM86.9949 89.1748C87.8312 89.1748 88.509 89.8526 88.509 90.6889C88.509 91.5252 87.8312 92.2033 86.9949 92.2033C86.1586 92.2033 85.4805 91.5252 85.4805 90.6889C85.4805 89.8526 86.1586 89.1748 86.9949 89.1748Z" fill="#ED5722"/>
<path d="M102.275 88.8076C102.834 88.8083 103.371 89.0307 103.766 89.4264C104.161 89.8217 104.383 90.3579 104.384 90.917C104.384 92.0807 103.439 93.0266 102.275 93.0266C101.113 93.0266 100.166 92.0807 100.166 90.917C100.167 90.3579 100.389 89.8217 100.785 89.4264C101.18 89.031 101.716 88.8086 102.275 88.8076ZM102.275 92.495C103.145 92.495 103.853 91.7872 103.853 90.917C103.853 90.0467 103.145 89.3396 102.275 89.3396C101.857 89.3396 101.456 89.506 101.16 89.8018C100.864 90.0976 100.697 90.4985 100.697 90.917C100.697 91.3354 100.864 91.7363 101.16 92.0321C101.456 92.328 101.857 92.4943 102.275 92.495Z" fill="#ED5722"/>
<path d="M102.256 92.497C101.371 92.497 100.654 91.7892 100.654 90.916C100.654 90.0428 101.371 89.335 102.256 89.335C103.14 89.335 103.857 90.0428 103.857 90.916C103.857 91.7892 103.14 92.497 102.256 92.497Z" fill="white"/>
<path d="M101.891 91.4096C101.886 91.4145 101.88 91.419 101.874 91.4226C101.96 91.4892 102.063 91.5319 102.171 91.5459C102.17 91.5391 102.169 91.5316 102.169 91.5244V91.132L101.891 91.4096ZM101.761 91.3101C101.765 91.3039 101.769 91.298 101.775 91.2928L102.052 91.0156H101.66C101.652 91.0156 101.645 91.0146 101.638 91.0126C101.652 91.1209 101.695 91.2237 101.761 91.3101ZM102.333 90.7341L102.611 90.4568C102.616 90.4516 102.622 90.447 102.628 90.4435C102.541 90.3769 102.439 90.3342 102.33 90.3205C102.332 90.3273 102.333 90.3345 102.333 90.342V90.7341ZM102.74 90.5563C102.736 90.5625 102.733 90.5681 102.727 90.5733L102.45 90.8509H102.842C102.849 90.8509 102.856 90.8515 102.864 90.8535C102.849 90.7426 102.805 90.6408 102.74 90.5563ZM102.727 91.2928C102.733 91.298 102.736 91.3039 102.74 91.3101C102.807 91.2237 102.85 91.1209 102.864 91.0126C102.856 91.0146 102.849 91.0156 102.842 91.0156H102.45L102.727 91.2928ZM102.628 91.4226C102.622 91.419 102.616 91.4145 102.611 91.4096L102.333 91.132V91.5244C102.333 91.5316 102.332 91.5391 102.33 91.5459C102.439 91.5319 102.541 91.4892 102.628 91.4226ZM102.052 90.8509L101.775 90.5733C101.769 90.5681 101.765 90.5625 101.761 90.5563C101.695 90.6427 101.652 90.7452 101.638 90.8535C101.645 90.8515 101.652 90.8509 101.66 90.8509H102.052ZM101.874 90.4435C101.88 90.447 101.886 90.4516 101.891 90.4568L102.169 90.7341V90.342C102.169 90.3345 102.17 90.3273 102.171 90.3205C102.06 90.3348 101.958 90.3785 101.874 90.4435ZM102.251 89.5791C102.999 89.5791 103.605 90.1851 103.605 90.9334C103.605 91.6813 102.999 92.2873 102.251 92.2873C101.503 92.2873 100.896 91.6813 100.896 90.9334C100.896 90.1851 101.503 89.5791 102.251 89.5791Z" fill="#ED5722"/>
<path d="M129.719 94.5684C126.342 94.5684 123.29 93.7823 120.561 92.2099C117.833 90.6374 115.659 88.5098 114.04 85.8273C112.468 83.0986 111.682 80 111.682 76.5311C111.682 73.0626 112.468 69.964 114.04 67.2352C115.659 64.5065 117.833 62.3788 120.561 60.8527C123.29 59.2802 126.342 58.4941 129.719 58.4941C133.095 58.4941 136.147 59.2802 138.876 60.8527C141.605 62.3788 143.755 64.5065 145.328 67.2352C146.947 69.964 147.756 73.0626 147.756 76.5311C147.756 80 146.947 83.0986 145.328 85.8273C143.755 88.5098 141.605 90.6374 138.876 92.2099C136.147 93.7823 133.095 94.5684 129.719 94.5684ZM129.719 84.3012C130.875 84.3012 131.893 84.0236 132.771 83.4688C133.65 82.8673 134.344 81.9886 134.853 80.8323C135.407 79.6761 135.685 78.2425 135.685 76.5311C135.685 74.82 135.407 73.3862 134.853 72.2302C134.344 71.0739 133.65 70.2184 132.771 69.6632C131.893 69.0621 130.898 68.7614 129.788 68.7614C128.632 68.7614 127.591 69.0621 126.666 69.6632C125.788 70.2184 125.071 71.0739 124.516 72.2302C124.007 73.3862 123.753 74.82 123.753 76.5311C123.753 78.2425 124.007 79.6761 124.516 80.8323C125.071 81.9886 125.788 82.8673 126.666 83.4688C127.591 84.0236 128.609 84.3012 129.719 84.3012Z" fill="white"/>
<path d="M73.4265 93.564L73.7148 94.0996L72.977 93.7617C73.1512 93.8768 73.3221 93.9897 73.4898 94.1006C59.3558 88.5557 36.9585 78.4443 24.564 67.8438C20.6499 64.4963 17.0621 58.0586 20.6499 52.0244L20.6534 52.0296C22.0569 49.313 25.0118 47.1475 29.8178 46.2613C43.4154 44.3398 58.4422 53.1093 63.1224 57.5928C60.6425 55.6221 53.3281 51.3457 43.9083 50.0057C32.1333 48.3305 26.9603 53.7006 28.6354 58.0361C30.1988 61.6993 33.6557 65.1137 37.7537 68.0783L37.7498 68.0868C37.8545 68.1915 38.272 68.4765 38.8728 68.866C38.9462 68.9165 39.0202 68.9668 39.094 69.017L39.0969 69.0108C40.7982 70.1041 43.6754 71.8619 45.3369 72.8655L45.3542 72.8518L58.9347 80.1078L49.4261 62.7659L46.0476 70.9711L46.0375 70.9652L46.0232 71.0021L38.2071 66.3124L43.3433 54.4763H55.626L73.7148 94.004L73.4265 93.564Z" fill="white"/>
<path d="M33.645 76.9834L26.373 94.2281H37.3157L42.3368 82.3783L33.645 76.9834Z" fill="white"/>
<path d="M35.6988 120.976C33.9026 120.976 32.2903 120.526 30.8617 119.628C29.433 118.731 28.3105 117.465 27.4941 115.832C26.6777 114.199 26.2695 112.291 26.2695 110.107C26.2695 107.903 26.7083 105.954 27.5859 104.26C28.4636 102.566 29.7187 101.24 31.3515 100.28C33.0046 99.3005 34.9845 98.8105 37.2905 98.8105C39.9032 98.8105 42.0562 99.4332 43.7504 100.678C45.4647 101.923 46.577 103.648 47.0871 105.852H41.3011C40.9746 105.138 40.4746 104.597 39.8011 104.229C39.1481 103.842 38.301 103.648 37.2602 103.648C35.9946 103.648 34.9437 103.913 34.1068 104.444C33.2701 104.974 32.6374 105.73 32.2087 106.709C31.8005 107.668 31.5964 108.811 31.5964 110.138C31.5964 111.485 31.8005 112.628 32.2087 113.567C32.6374 114.485 33.2597 115.179 34.0761 115.649C34.8925 116.118 35.8824 116.353 37.0459 116.353C38.6376 116.353 39.8418 115.965 40.6582 115.189C41.4949 114.393 42.0154 113.444 42.2196 112.342H37.5968V108.485H47.4547V120.608H42.6176L42.2503 117.516H42.1276C41.7196 118.251 41.199 118.883 40.5663 119.414C39.9338 119.924 39.199 120.312 38.362 120.577C37.5459 120.843 36.6581 120.976 35.6988 120.976Z" fill="white"/>
<path d="M49.9199 120.609V99.1787H55.0323V107.965H55.155C55.6446 107.026 56.2979 106.312 57.1143 105.822C57.9509 105.312 59.0123 105.057 60.2981 105.057C61.5636 105.057 62.6145 105.352 63.4512 105.944C64.2881 106.516 64.9209 107.342 65.3495 108.424C65.7781 109.506 65.9924 110.812 65.9924 112.343V120.609H60.788V112.802C60.788 111.761 60.5838 110.945 60.1757 110.353C59.7879 109.74 59.0938 109.435 58.0938 109.435C57.5223 109.435 57.0122 109.577 56.5631 109.863C56.1143 110.128 55.7672 110.516 55.5222 111.026C55.2773 111.516 55.155 112.108 55.155 112.802V120.609H49.9199Z" fill="white"/>
<path d="M73.8117 120.977C72.5054 120.977 71.4033 120.691 70.5053 120.12C69.6276 119.548 68.9645 118.722 68.5153 117.64C68.0665 116.538 67.8418 115.221 67.8418 113.691V105.425H73.0462V113.231C73.0462 114.272 73.2403 115.099 73.6281 115.711C74.0361 116.303 74.7403 116.599 75.7404 116.599C76.3324 116.599 76.8425 116.466 77.2711 116.201C77.7202 115.915 78.067 115.528 78.3119 115.038C78.5569 114.527 78.6795 113.925 78.6795 113.231V105.425H83.9142V120.609H79.506L79.0774 118.16H78.9548C78.506 119.058 77.8631 119.752 77.0261 120.242C76.2097 120.732 75.1383 120.977 73.8117 120.977Z" fill="white"/>
<path d="M86.0469 120.609V105.424H90.6084L91.037 107.995H91.1593C91.5879 107.016 92.2106 106.281 93.027 105.791C93.8636 105.302 94.8741 105.057 96.0577 105.057C96.7926 105.057 97.4763 105.148 98.109 105.332C98.7415 105.516 99.3129 105.822 99.8234 106.25C100.334 106.679 100.762 107.261 101.109 107.995H101.231C101.803 107.098 102.507 106.383 103.344 105.853C104.201 105.322 105.303 105.057 106.65 105.057C107.854 105.057 108.875 105.352 109.712 105.944C110.569 106.516 111.222 107.342 111.671 108.424C112.12 109.506 112.344 110.812 112.344 112.343V120.609H107.14V112.802C107.14 111.761 106.946 110.945 106.559 110.353C106.171 109.74 105.528 109.435 104.63 109.435C104.038 109.435 103.528 109.577 103.099 109.863C102.691 110.128 102.374 110.516 102.15 111.026C101.926 111.516 101.813 112.108 101.813 112.802V120.609H96.6087V112.802C96.6087 111.761 96.4149 110.945 96.0271 110.353C95.6393 109.74 94.9657 109.435 94.0065 109.435C93.4555 109.435 92.9757 109.577 92.5677 109.863C92.1597 110.128 91.8433 110.516 91.6185 111.026C91.3941 111.516 91.2819 112.108 91.2819 112.802V120.609H86.0469Z" fill="white"/>
<path d="M122.127 120.976C120.494 120.976 119.056 120.649 117.811 119.996C116.566 119.343 115.596 118.435 114.902 117.272C114.208 116.108 113.861 114.771 113.861 113.261C113.861 111.69 114.198 110.292 114.871 109.067C115.566 107.822 116.525 106.842 117.749 106.128C118.994 105.414 120.443 105.057 122.097 105.057C123.627 105.057 124.995 105.383 126.199 106.036C127.424 106.689 128.382 107.598 129.077 108.761C129.791 109.924 130.148 111.281 130.148 112.833C130.148 113.037 130.138 113.271 130.117 113.537C130.117 113.802 130.097 114.067 130.056 114.333H117.535V111.424H124.791C124.729 110.792 124.454 110.271 123.964 109.863C123.474 109.435 122.872 109.22 122.158 109.22C121.566 109.22 121.025 109.353 120.535 109.618C120.066 109.883 119.698 110.292 119.433 110.843C119.168 111.394 119.035 112.098 119.035 112.955V113.873C119.035 114.384 119.147 114.863 119.372 115.312C119.596 115.741 119.933 116.088 120.382 116.353C120.852 116.618 121.413 116.751 122.066 116.751C122.597 116.751 123.046 116.639 123.413 116.414C123.78 116.19 124.076 115.914 124.301 115.588H129.689C129.383 116.588 128.862 117.496 128.127 118.313C127.413 119.129 126.536 119.782 125.495 120.272C124.474 120.741 123.352 120.976 122.127 120.976Z" fill="white"/>
<path d="M131.684 120.609V105.424H136.092L136.521 107.965H136.643C137.112 107.026 137.755 106.312 138.572 105.822C139.409 105.312 140.48 105.057 141.786 105.057C143.113 105.057 144.215 105.352 145.093 105.944C145.97 106.516 146.634 107.342 147.082 108.424C147.532 109.506 147.756 110.812 147.756 112.343V120.609H142.552V112.802C142.552 111.761 142.347 110.945 141.939 110.353C141.552 109.74 140.858 109.435 139.857 109.435C139.286 109.435 138.776 109.577 138.327 109.863C137.878 110.128 137.531 110.516 137.286 111.026C137.041 111.516 136.919 112.108 136.919 112.802V120.609H131.684Z" fill="white"/>
</svg>
