<svg width="31" height="30" viewBox="0 0 31 30" fill="none" xmlns="http://www.w3.org/2000/svg">
<g clip-path="url(#clip0_3114_4183)">
<path fill-rule="evenodd" clip-rule="evenodd" d="M17.9555 7.62241C17.8219 7.62241 17.6934 7.56782 17.5976 7.46696C17.5178 7.38293 17.4683 7.28386 17.3775 7.10402C17.2179 6.78651 16.9205 6.19424 16.3056 5.4155C16.0511 5.09295 15.9486 4.98288 15.8763 4.91153C15.8201 4.8561 15.6764 4.72169 15.4698 4.56962C15.3135 4.75361 15.1346 4.909 14.9346 5.03331C14.3407 5.40378 13.7569 5.38947 13.2873 5.37859L13.2545 5.37775C13.2402 5.37775 11.8071 5.34499 10.2774 5.45084C9.19459 5.52562 8.87708 5.65745 8.64523 5.78518C8.43436 5.90192 8.04207 6.11868 7.86144 6.52022C7.7833 6.69328 7.76064 6.86292 7.74134 6.99901C7.73124 7.07462 7.72199 7.14015 7.70437 7.20561C7.62791 7.48621 7.41284 7.60211 7.23731 7.61636C7.13145 7.62561 6.86684 7.61047 6.68711 7.28118C6.64178 7.19804 6.59803 7.08966 6.55775 6.9603C6.48381 6.72509 6.42418 6.43103 6.39394 6.15301C6.28057 5.12392 6.55354 4.28055 6.72576 3.86976C6.83745 3.60346 7.17352 2.91128 7.87575 2.23167C9.0921 1.05644 10.5454 0.754863 11.5073 0.554934C12.3095 0.388606 12.8707 0.364259 13.5763 0.348326C14.1257 0.335705 14.775 0.359264 15.4319 0.631393C15.768 0.769955 16.0133 0.935494 16.2048 1.15225C16.351 1.31858 16.4097 1.44883 16.4778 1.59917C16.513 1.67647 16.5525 1.76466 16.6163 1.88729C16.7759 2.19055 16.8725 2.37449 17.0321 2.53998C17.1043 2.61475 17.1321 2.63074 17.2346 2.69116C17.3438 2.75584 17.4933 2.84324 17.742 3.02971C18.0478 3.25903 18.2502 3.41111 18.4686 3.67403C18.6081 3.84289 18.8996 4.194 19.0147 4.7157C19.0886 5.04835 19.0542 5.31044 18.997 5.74479C18.9601 6.02539 18.7702 6.5403 18.7123 6.6907C18.467 7.33503 18.3427 7.52149 18.1091 7.59711C18.0596 7.61387 18.0077 7.62241 17.9555 7.62241ZM15.3547 3.47011C15.5874 3.47011 15.789 3.61125 15.9167 3.70033L15.9301 3.70958C16.235 3.92124 16.4517 4.12033 16.5534 4.22034C16.6634 4.32788 16.7928 4.4707 17.0658 4.81598C17.4489 5.3015 17.7202 5.72071 17.9151 6.05673C17.9789 5.87105 18.0285 5.70309 18.0394 5.61906C18.0914 5.21836 18.1066 5.08395 18.0713 4.92436C18.0066 4.63114 17.8369 4.42706 17.7252 4.29181C17.5799 4.11622 17.4405 4.01211 17.1633 3.80371C16.9583 3.64995 16.8407 3.58022 16.7458 3.5248C16.6198 3.45086 16.5013 3.38119 16.3375 3.21065C16.0821 2.94604 15.941 2.67723 15.7621 2.337C15.6839 2.18829 15.6344 2.07744 15.5974 1.99677C15.5412 1.87246 15.5294 1.84727 15.4807 1.79185C15.4194 1.72212 15.3169 1.62967 15.064 1.52471C14.5743 1.32226 14.0711 1.30459 13.5998 1.31474C12.9252 1.32983 12.4287 1.35171 11.7054 1.50121C10.8015 1.68857 9.56416 1.94561 8.54942 2.92674C7.95972 3.49714 7.68754 4.07842 7.61866 4.24311C7.50944 4.50267 7.35068 4.97899 7.33638 5.57457C7.41965 5.48088 7.51009 5.39382 7.60688 5.31417C7.82779 5.13107 8.04623 5.01007 8.17727 4.93782C8.58633 4.71097 9.05092 4.56483 10.2111 4.48422C11.7878 4.375 13.2184 4.40776 13.2781 4.40944L13.3117 4.41028C13.704 4.41954 14.0753 4.42874 14.4223 4.21204C14.6037 4.09866 14.7591 3.93738 14.8835 3.73235C14.9216 3.66866 14.9724 3.61354 15.0329 3.57045C15.0933 3.52736 15.162 3.49725 15.2346 3.48199C15.2741 3.47388 15.3144 3.46989 15.3547 3.47011Z" fill="#182138"/>
<path fill-rule="evenodd" clip-rule="evenodd" d="M12.7202 15.6777C12.3527 15.6778 11.9862 15.6378 11.6274 15.5584C11.2729 15.4802 10.3497 15.2182 9.44323 14.4755C9.00893 14.1194 8.21173 13.3339 7.75892 12.0739C7.63545 11.7303 7.55478 11.3607 7.50856 11.1078C7.19184 10.9658 6.9012 10.7517 6.65505 10.477C6.3409 10.1258 6.12162 9.70079 6.02166 9.24798C5.81836 8.32731 6.13088 7.42337 6.87932 6.76984C7.08094 6.59426 7.38672 6.6144 7.56225 6.81606C7.73783 7.01768 7.71769 7.32346 7.51603 7.49899C6.86665 8.06602 6.89273 8.70782 6.96662 9.03963C7.09766 9.63269 7.54369 10.1351 8.07632 10.2896C8.16633 10.3157 8.2468 10.3674 8.30795 10.4384C8.3691 10.5094 8.40827 10.5966 8.42071 10.6895C8.45767 10.9608 8.54418 11.401 8.66938 11.7479C9.05751 12.8282 9.76899 13.4927 10.0563 13.7288C10.8014 14.3387 11.5491 14.5521 11.8355 14.6158C12.652 14.7956 13.3249 14.6772 13.5769 14.6175C14.2641 14.4553 14.7269 14.1362 14.9252 14.0001C15.068 13.9018 15.441 13.6246 15.8207 13.1751C16.3692 12.5257 16.7733 11.6428 16.9917 10.6205C17.0119 10.5256 17.0602 10.4389 17.1304 10.3718C17.2005 10.3047 17.2892 10.2602 17.3849 10.2442C17.5982 10.208 17.831 10.024 18.0225 9.74018C18.2308 9.43019 18.3661 9.04042 18.3929 8.67164C18.4215 8.27683 18.3426 7.76944 17.8016 7.59554C17.5471 7.51403 17.4076 7.24106 17.4891 6.98649C17.5706 6.73198 17.8436 6.59252 18.0981 6.67403C18.5568 6.8219 18.9138 7.11506 19.1297 7.52328C19.312 7.86688 19.391 8.28772 19.3583 8.74053C19.3196 9.27227 19.1256 9.83341 18.8257 10.2795C18.5611 10.6727 18.2309 10.9566 17.8739 11.1036C17.6093 12.1746 17.1683 13.0802 16.5609 13.7992C16.1224 14.3184 15.6923 14.6468 15.4747 14.7964C15.2529 14.9484 14.6641 15.3541 13.8005 15.5583C13.5678 15.6121 13.1907 15.6777 12.7202 15.6777Z" fill="#182138"/>
<path fill-rule="evenodd" clip-rule="evenodd" d="M9.82599 17.5328C9.75139 17.5329 9.6778 17.5156 9.61097 17.4825C9.37155 17.364 9.27327 17.0734 9.39253 16.834C9.54125 16.5341 9.79323 15.9326 9.8109 15.2715C9.81763 15.0119 9.78403 14.8934 9.72855 14.696C9.7115 14.6362 9.69497 14.5763 9.67897 14.5163C9.6126 14.2576 9.76883 13.9937 10.0276 13.9274C10.2863 13.861 10.5501 14.0172 10.6165 14.276C10.6308 14.3298 10.6451 14.3819 10.6594 14.4322C10.7232 14.6574 10.7896 14.8901 10.7787 15.2966C10.7569 16.1434 10.4443 16.8927 10.2604 17.2632C10.2204 17.3442 10.1585 17.4124 10.0817 17.4601C10.0049 17.5077 9.91636 17.5329 9.82599 17.5328ZM15.6904 17.8503C15.6069 17.8504 15.5247 17.8288 15.452 17.7878C15.3793 17.7467 15.3184 17.6875 15.2754 17.616C14.9562 17.0851 14.5706 16.2518 14.5453 15.2974C14.5344 14.89 14.6007 14.6574 14.6646 14.433C14.6789 14.3827 14.6932 14.3314 14.7075 14.2768C14.7739 14.0181 15.0376 13.8618 15.2964 13.9282C15.5552 13.9945 15.7114 14.2583 15.645 14.5171C15.6283 14.5826 15.6106 14.6431 15.5955 14.6968C15.54 14.8934 15.5056 15.0126 15.5131 15.2722C15.5325 16.0165 15.8458 16.6869 16.1045 17.1178C16.2422 17.3472 16.1683 17.6445 15.939 17.7815C15.8638 17.8264 15.7779 17.8502 15.6904 17.8503Z" fill="#182138"/>
<path fill-rule="evenodd" clip-rule="evenodd" d="M24.8261 29.6539H1.10319C0.836902 29.6539 0.620145 29.438 0.619356 29.1718C0.614308 27.485 0.691608 23.2688 1.5325 20.5572C1.75599 19.838 2.02644 19.2509 2.38344 18.7099C2.68333 18.2563 3.54862 17.1155 5.09427 16.33C6.5106 15.6093 7.86562 15.5026 8.75268 15.5396C8.8687 15.5444 8.97907 15.5909 9.06351 15.6706L12.8631 19.2383L16.8726 15.663C16.9561 15.5883 17.063 15.5449 17.175 15.5404C18.0621 15.5034 19.4163 15.6109 20.8334 16.3308C22.3791 17.1171 23.2444 18.2571 23.5443 18.7107C23.9021 19.2517 24.1726 19.838 24.3952 20.5579C24.7816 21.8021 25.0505 23.504 25.1949 25.6141C25.2731 26.7532 25.3125 27.983 25.3083 29.1717C25.3091 29.4389 25.0924 29.6539 24.8261 29.6539ZM12.9353 28.6863H24.3414C24.3347 27.6732 24.2969 26.6433 24.2305 25.6806C24.091 23.6443 23.8356 22.0171 23.4719 20.8444C23.2737 20.2068 23.0477 19.7129 22.7377 19.2441C22.4798 18.8543 21.7355 17.874 20.3948 17.1927C19.2523 16.6114 18.1544 16.4896 17.3858 16.5014L13.1772 20.2538C13.0868 20.3342 12.9696 20.3778 12.8487 20.3763C12.7278 20.3747 12.6119 20.3281 12.5236 20.2454L8.53587 16.5005C7.76807 16.4904 6.67351 16.6122 5.53351 17.1918C4.19279 17.8731 3.44855 18.8534 3.19062 19.2432C2.88063 19.7119 2.65467 20.205 2.45643 20.8426C2.09269 22.0153 1.83729 23.6425 1.69783 25.6788C1.63147 26.6415 1.59366 27.6714 1.58693 28.6845L12.9353 28.6863Z" fill="#182138"/>
<path fill-rule="evenodd" clip-rule="evenodd" d="M5.69478 29.653C5.42764 29.653 5.21094 29.4363 5.21094 29.1692V23.5888C5.21094 23.3216 5.42769 23.1049 5.69478 23.1049C5.96186 23.1049 6.17861 23.3216 6.17861 23.5888V29.1692C6.17872 29.4363 5.96196 29.653 5.69478 29.653ZM20.6241 29.653C20.3569 29.653 20.1402 29.4363 20.1402 29.1692V23.5888C20.1402 23.3216 20.3569 23.1049 20.6241 23.1049C20.8912 23.1049 21.1079 23.3216 21.1079 23.5888V29.1692C21.108 29.4363 20.8912 29.653 20.6241 29.653ZM22.5705 15.6898C22.3033 15.6898 22.0866 15.4731 22.0866 15.206V1.48384C22.0866 1.2167 22.3033 1 22.5705 1C22.8376 1 23.0543 1.21676 23.0543 1.48384V15.206C23.0544 15.4731 22.8376 15.6898 22.5705 15.6898Z" fill="#182138"/>
<path fill-rule="evenodd" clip-rule="evenodd" d="M30.1345 8.99237H22.5699C22.3027 8.99237 22.086 8.77566 22.086 8.50853V2.67524C22.0861 2.58481 22.1114 2.4962 22.1592 2.41945C22.207 2.3427 22.2754 2.28088 22.3566 2.241C22.4377 2.20113 22.5284 2.18479 22.6184 2.19384C22.7084 2.20289 22.794 2.23696 22.8656 2.2922L30.4302 8.12545C30.5102 8.18713 30.5689 8.27232 30.5979 8.36905C30.627 8.46578 30.6251 8.56919 30.5924 8.66476C30.5598 8.76031 30.4981 8.84327 30.416 8.90201C30.3339 8.96076 30.2354 8.99235 30.1345 8.99237ZM23.0538 8.02464H28.7148L23.0538 3.65979V8.02464ZM15.3573 27.9026H10.3237C10.0565 27.9026 9.83984 27.6859 9.83984 27.4188V21.4956C9.83984 21.2285 10.0565 21.0118 10.3237 21.0118H15.3573C15.6244 21.0118 15.8411 21.2285 15.8411 21.4956V27.4188C15.8412 27.4824 15.8288 27.5453 15.8045 27.6041C15.7803 27.6629 15.7446 27.7163 15.6997 27.7612C15.6547 27.8062 15.6013 27.8418 15.5426 27.8661C15.4838 27.8903 15.4208 27.9028 15.3573 27.9026ZM10.8084 26.9349H14.8742V21.9795H10.8084V26.9349Z" fill="#182138"/>
<path fill-rule="evenodd" clip-rule="evenodd" d="M13.7218 23.5123H11.9602C11.6931 23.5123 11.4764 23.2956 11.4764 23.0285C11.4764 22.7613 11.6931 22.5446 11.9602 22.5446H13.7218C13.9889 22.5446 14.2056 22.7613 14.2056 23.0285C14.2056 23.2956 13.9889 23.5123 13.7218 23.5123ZM13.7218 24.942H11.9602C11.6931 24.942 11.4764 24.7253 11.4764 24.4582C11.4764 24.191 11.6931 23.9743 11.9602 23.9743H13.7218C13.9889 23.9743 14.2056 24.191 14.2056 24.4582C14.2056 24.7253 13.9889 24.942 13.7218 24.942ZM13.7218 26.3718H11.9602C11.6931 26.3718 11.4764 26.1551 11.4764 25.888C11.4764 25.6208 11.6931 25.4041 11.9602 25.4041H13.7218C13.9889 25.4041 14.2056 25.6208 14.2056 25.888C14.2056 26.1551 13.9889 26.3718 13.7218 26.3718ZM10.3246 21.98C10.2409 21.9801 10.1586 21.9585 10.0857 21.9173C10.0128 21.8761 9.95189 21.8166 9.90883 21.7448L6.69986 16.3928C6.66714 16.3384 6.64547 16.278 6.63612 16.2151C6.62677 16.1522 6.62991 16.0881 6.64536 16.0265C6.66081 15.9649 6.68826 15.9069 6.72616 15.8558C6.76405 15.8048 6.81164 15.7618 6.86619 15.7292C6.92067 15.6964 6.98107 15.6748 7.04393 15.6654C7.1068 15.6561 7.17089 15.6592 7.23253 15.6747C7.29418 15.6901 7.35218 15.7176 7.4032 15.7555C7.45422 15.7934 7.49727 15.8409 7.52987 15.8955L10.7388 21.2474C10.7716 21.3019 10.7932 21.3623 10.8026 21.4252C10.8119 21.488 10.8088 21.5521 10.7933 21.6138C10.7779 21.6754 10.7504 21.7334 10.7125 21.7844C10.6747 21.8354 10.6271 21.8785 10.5725 21.9111C10.4978 21.9565 10.412 21.9803 10.3246 21.98ZM15.3574 21.98C15.2697 21.9802 15.1837 21.9564 15.1087 21.9112C14.9987 21.8452 14.9194 21.7382 14.8882 21.6138C14.857 21.4893 14.8765 21.3576 14.9424 21.2475L18.1513 15.8956C18.2173 15.7856 18.3243 15.7063 18.4487 15.6751C18.5732 15.6439 18.7049 15.6634 18.815 15.7293C18.925 15.7953 19.0043 15.9022 19.0355 16.0267C19.0667 16.1511 19.0472 16.2829 18.9813 16.3929L15.7724 21.7449C15.6824 21.896 15.522 21.98 15.3574 21.98Z" fill="#182138"/>
<path d="M15.5836 9.33558C15.5012 9.418 15.3894 9.4643 15.2729 9.4643C15.1563 9.4643 15.0445 9.418 14.9621 9.33558C14.8797 9.25317 14.8334 9.14139 14.8334 9.02484V8.05664C14.8334 7.81395 15.0301 7.61719 15.2729 7.61719C15.5156 7.61719 15.7123 7.81395 15.7123 8.05664V9.02484C15.7123 9.14139 15.666 9.25317 15.5836 9.33558Z" fill="#182138"/>
<path d="M10.1229 7.74596C10.2053 7.66355 10.317 7.61725 10.4336 7.61725C10.5501 7.61725 10.6619 7.66355 10.7443 7.74596C10.8267 7.82837 10.873 7.94015 10.873 8.0567V9.0249C10.873 9.2676 10.6763 9.46436 10.4336 9.46436C10.1908 9.46436 9.99414 9.2676 9.99414 9.0249V8.0567C9.99414 7.94015 10.0404 7.82837 10.1229 7.74596Z" fill="#182138"/>
<path d="M13.944 11.4392C14.0559 11.4718 14.1503 11.5476 14.2063 11.6497C14.2624 11.7519 14.2756 11.8722 14.243 11.9841C14.2103 12.096 14.1346 12.1904 14.0324 12.2464C13.7789 12.3855 13.3404 12.5542 12.8276 12.5488C12.3199 12.5435 11.92 12.3814 11.6739 12.2464C11.573 12.1896 11.4986 12.0953 11.4669 11.984C11.4351 11.8727 11.4485 11.7534 11.5042 11.6519C11.5599 11.5505 11.6533 11.4751 11.7643 11.4421C11.8752 11.4091 11.9947 11.4212 12.0968 11.4758C12.3238 11.6002 12.5779 11.6669 12.8368 11.6699C13.1067 11.672 13.3727 11.6052 13.6097 11.4758C13.7119 11.4198 13.8321 11.4066 13.944 11.4392Z" fill="#182138"/>
</g>
<defs>
<clipPath id="clip0_3114_4183">
<rect width="30" height="30" fill="white" transform="translate(0.619141)"/>
</clipPath>
</defs>
</svg>
